<?xml version="1.0" encoding="utf-8"?>
<!-- Generator: Adobe Illustrator 17.0.0, SVG Export Plug-In . SVG Version: 6.00 Build 0)  -->
<!DOCTYPE svg PUBLIC "-//W3C//DTD SVG 1.1//EN" "http://www.w3.org/Graphics/SVG/1.1/DTD/svg11.dtd">
<svg version="1.1" id="Capa_1" xmlns="http://www.w3.org/2000/svg" xmlns:xlink="http://www.w3.org/1999/xlink" x="0px" y="0px"
	 width="318.402px" height="406.78px" viewBox="0 0 318.402 406.78" enable-background="new 0 0 318.402 406.78"
	 xml:space="preserve">
<g>
	<path fill="#224485" d="M239.203,257.63c2.466-0.027,4.759,2.428,4.71,5.043c-0.045,2.414-2.344,4.541-4.906,4.537
		c-2.76-0.004-4.755-2.037-4.77-4.861C234.224,259.666,236.334,257.661,239.203,257.63z"/>
	<path fill="#224485" d="M249.856,311.243c2.527,0.069,4.646,2.559,4.631,5.442c-0.012,2.211-2.57,4.36-5.108,4.291
		c-2.509-0.068-4.506-2.278-4.449-4.924C244.987,313.389,247.258,311.173,249.856,311.243z"/>
	<path fill="#224485" d="M275.741,284.056c0.027,2.52-2.081,4.645-4.68,4.718c-2.577,0.072-4.819-1.982-4.905-4.495
		c-0.099-2.872,2.11-5.255,4.816-5.195C273.633,279.142,275.711,281.309,275.741,284.056z"/>
	<path fill="#224485" d="M228.486,331.651c-2.785,0.035-4.941-1.983-4.962-4.643c-0.02-2.654,2.183-4.884,4.815-4.873
		c2.53,0.01,4.829,2.142,4.83,4.599C233.171,328.996,231.368,331.932,228.486,331.651z"/>
	<path fill="#224485" d="M211.746,380.71c-0.01,2.755-1.904,4.626-4.638,4.584c-2.818-0.043-4.763-1.984-4.81-4.798
		c-0.042-2.578,2.209-4.816,4.842-4.813C209.739,375.686,211.757,377.889,211.746,380.71z"/>
	<path fill="#224485" d="M239.04,310.282c-2.892-0.168-5.012-2.438-4.851-5.195c0.148-2.539,2.387-4.585,4.934-4.507
		c2.456,0.075,4.857,2.449,4.796,4.741C243.851,307.87,241.347,310.416,239.04,310.282z"/>
	<path fill="#224485" d="M217.867,279.033c2.234-0.031,4.62,2.475,4.633,4.866c0.013,2.514-2.113,4.787-4.573,4.889
		c-2.786,0.115-5.056-2.081-4.975-4.94C213.025,281.227,214.798,279.333,217.867,279.033z"/>
	<path fill="#224485" d="M254.507,283.724c-0.061,2.83-2.259,5.099-4.91,5.066c-2.687-0.033-4.803-2.278-4.683-4.969
		c0.111-2.487,2.371-4.74,4.778-4.764C252.115,279.032,254.556,281.399,254.507,283.724z"/>
	<path fill="#224485" d="M211.784,284.097c-0.017,2.391-2.404,4.729-4.784,4.684c-2.507-0.047-4.751-2.306-4.716-4.749
		c0.041-2.875,2.269-5.06,5.065-4.966C209.779,279.149,211.803,281.445,211.784,284.097z"/>
	<path fill="#224485" d="M239.04,299.389c-2.666-0.013-4.921-2.225-4.902-4.808c0.019-2.532,2.324-4.68,5.02-4.679
		c2.52,0.001,4.822,2.412,4.728,4.951C243.793,297.385,241.638,299.402,239.04,299.389z"/>
	<path fill="#224485" d="M265.086,294.682c0.005,2.908-1.844,4.717-4.828,4.725c-2.812,0.008-4.666-1.779-4.724-4.555
		c-0.059-2.824,2.158-5.042,4.976-4.978C263.094,289.933,265.082,292.022,265.086,294.682z"/>
	<path fill="#224485" d="M217.614,321.022c-2.529-0.019-4.835-2.465-4.729-5.017c0.092-2.224,2.765-4.934,4.775-4.841
		c2.637,0.122,4.815,2.516,4.819,5.294C222.481,318.788,220.08,321.041,217.614,321.022z"/>
	<path fill="#224485" d="M239.275,311.236c2.288,0.006,4.568,2.454,4.606,4.948c0.038,2.446-2.261,4.774-4.696,4.757
		c-2.979-0.021-4.964-2.02-4.945-4.982C234.256,313.398,236.567,311.229,239.275,311.236z"/>
	<path fill="#224485" d="M201.17,369.944c-0.06,2.646-2.342,4.783-4.973,4.658c-2.56-0.121-4.502-2.205-4.511-4.837
		c-0.009-2.651,2.185-4.836,4.833-4.815C199.052,364.97,201.23,367.309,201.17,369.944z"/>
	<path fill="#224485" d="M222.466,348.54c-0.135,2.595-2.585,4.998-5.034,4.673c-2.566-0.34-4.641-2.127-4.531-5.21
		c0.093-2.627,2.49-4.646,5.192-4.485C220.485,343.662,222.593,346.082,222.466,348.54z"/>
	<path fill="#224485" d="M202.294,240.577c0.149-2.534,2.514-4.846,4.851-4.437c2.987,0.523,4.787,1.945,4.621,5.277
		c-0.117,2.333-2.485,4.448-4.744,4.316C204.086,245.561,202.127,243.425,202.294,240.577z"/>
	<path fill="#224485" d="M239.068,331.626c-2.65-0.028-4.966-2.298-4.896-4.799c0.07-2.517,2.232-4.686,4.701-4.716
		c2.685-0.033,4.94,2.097,4.957,4.68C243.847,329.534,241.758,331.654,239.068,331.626z"/>
	<path fill="#224485" d="M211.738,402.049c-0.008,2.666-1.967,4.698-4.56,4.731c-2.823,0.036-4.95-2.155-4.875-5.021
		c0.064-2.49,2.199-4.565,4.729-4.598C209.58,397.127,211.746,399.377,211.738,402.049z"/>
	<path fill="#224485" d="M196.42,299.394c-2.569,0.008-4.762-2.051-4.822-4.527c-0.069-2.825,2.081-4.993,4.943-4.987
		c2.502,0.006,4.596,2.153,4.622,4.738C201.191,297.414,199.234,299.385,196.42,299.394z"/>
	<path fill="#224485" d="M201.168,284.105c0.012,2.36-2.39,4.642-4.806,4.698c-1.776,0.042-4.918-2.503-4.799-4.486
		c0.166-2.765,2.062-5.189,4.568-5.256C198.797,278.989,201.155,281.351,201.168,284.105z"/>
	<path fill="#224485" d="M196.408,257.674c2.747,0.05,4.798,2.15,4.763,4.875c-0.033,2.551-2.176,4.687-4.692,4.678
		c-2.967-0.011-4.924-2.028-4.846-4.995C191.698,259.738,193.909,257.628,196.408,257.674z"/>
	<path fill="#224485" d="M239.198,247.049c2.122-0.491,4.635,2.077,4.66,4.641c0.025,2.501-2.226,4.792-4.619,4.858
		c-2.731,0.075-5.053-2.191-5.051-4.93C234.192,248.958,236.247,247.083,239.198,247.049z"/>
	<path fill="#224485" d="M174.99,247.022c2.705-0.334,4.928,2.693,4.886,4.791c-0.05,2.499-2.164,4.61-4.754,4.65
		c-2.539,0.04-4.922-2.287-4.897-4.865C170.246,249.485,172.359,246.692,174.99,247.022z"/>
	<path fill="#224485" d="M228.403,246.998c2.813,0.034,4.681,1.893,4.639,4.616c-0.044,2.84-2.155,4.997-4.788,4.892
		c-2.6-0.104-4.728-2.218-4.757-4.727C223.467,249.241,225.802,246.966,228.403,246.998z"/>
	<path fill="#224485" d="M185.737,267.196c-2.575-0.008-4.731-2.051-4.78-4.53c-0.055-2.81,2.142-5.082,4.892-5.056
		c2.543,0.023,4.596,2.307,4.665,5.044C190.568,264.731,188.18,267.597,185.737,267.196z"/>
	<path fill="#224485" d="M211.756,262.527c0.022,2.708-2.018,4.672-4.869,4.689c-2.493,0.015-4.584-2.126-4.607-4.717
		c-0.023-2.596,2.025-4.775,4.526-4.814C209.823,257.637,211.731,259.504,211.756,262.527z"/>
	<path fill="#224485" d="M271.127,268.516c2.652,0.115,4.675,2.185,4.606,4.712c-0.08,2.94-2.197,4.888-5.112,4.704
		c-2.683-0.17-4.511-2.18-4.42-4.861C266.299,270.167,268.221,268.39,271.127,268.516z"/>
	<path fill="#224485" d="M217.753,289.86c2.619,0.056,4.807,2.353,4.72,4.956c-0.082,2.464-2.411,4.951-4.701,4.742
		c-2.757-0.252-4.795-1.994-4.854-4.886C212.864,292.081,215.188,289.805,217.753,289.86z"/>
	<path fill="#224485" d="M254.45,305.166c0.069,2.634-2.09,5.009-4.62,5.082c-2.654,0.076-4.833-2.045-4.876-4.746
		c-0.04-2.53,1.881-4.847,4.146-4.866C251.717,300.615,254.244,301.913,254.45,305.166z"/>
	<path fill="#224485" d="M260.463,310.101c-2.801,0.019-5.01-2.199-4.95-4.97c0.052-2.385,2.381-4.609,4.838-4.619
		c2.529-0.011,4.792,2.351,4.755,4.963C265.071,308.06,263.04,310.083,260.463,310.101z"/>
	<path fill="#224485" d="M211.725,316.456c-0.038,2.425-2.137,4.448-4.63,4.461c-2.793,0.015-4.88-2.077-4.819-4.832
		c0.055-2.492,2.337-4.863,4.673-4.856C209.627,311.237,211.77,313.582,211.725,316.456z"/>
	<path fill="#224485" d="M211.785,337.673c0.051,2.423-2.233,4.716-4.691,4.711c-2.636-0.005-4.744-2.007-4.806-4.563
		c-0.07-2.897,1.916-4.855,4.968-4.899C209.761,332.887,211.728,334.951,211.785,337.673z"/>
	<path fill="#224485" d="M201.143,380.517c-0.022,2.617-2.064,4.715-4.623,4.751c-2.939,0.041-4.818-1.809-4.801-4.728
		c0.015-2.637,2.109-4.863,4.545-4.83C198.953,375.746,201.165,377.926,201.143,380.517z"/>
	<path fill="#224485" d="M228.217,245.673c-2.689-0.045-4.766-2.194-4.742-4.906c0.021-2.379,2.633-4.752,5.108-4.64
		c2.456,0.111,4.653,2.432,4.599,4.859C233.123,243.632,230.913,245.719,228.217,245.673z"/>
	<path fill="#224485" d="M211.776,369.777c-0.027,2.821-2.042,4.857-4.791,4.842c-2.649-0.014-4.795-2.273-4.707-4.956
		c0.081-2.497,2.42-4.914,4.674-4.827C209.585,364.937,211.801,367.206,211.776,369.777z"/>
	<path fill="#224485" d="M233.16,273.214c-0.078,2.175-1.664,4.888-4.83,4.762c-2.555-0.102-4.862-2.431-4.801-4.918
		c0.061-2.5,2.556-4.968,5.028-4.679C231.208,268.687,232.989,270.409,233.16,273.214z"/>
	<path fill="#224485" d="M254.417,294.638c0.032,2.778-2.049,4.867-4.811,4.829c-2.564-0.035-4.62-2.121-4.678-4.747
		c-0.059-2.652,2.126-4.84,4.833-4.842C252.286,289.876,254.387,292.024,254.417,294.638z"/>
	<path fill="#224485" d="M233.124,294.898c-0.036,2.466-2.298,4.586-4.837,4.533c-2.736-0.058-4.951-2.431-4.813-5.173
		c0.09-1.779,2.268-4.583,5.023-4.39C231.094,290.05,233.163,292.205,233.124,294.898z"/>
	<path fill="#224485" d="M185.832,289.897c2.597,0.048,4.665,2.11,4.625,4.728c-0.047,3.111-2.242,4.715-4.828,4.862
		c-2.594,0.147-4.645-2.337-4.612-5.345C181.042,291.942,183.411,289.853,185.832,289.897z"/>
	<path fill="#224485" d="M260.527,279.177c2.553,0.033,4.567,2.119,4.58,4.743c0.013,2.594-2.285,4.933-4.805,4.89
		c-2.592-0.045-4.786-2.333-4.76-4.966C255.567,281.296,257.866,279.143,260.527,279.177z"/>
	<path fill="#224485" d="M217.89,322.132c2.55,0.043,4.568,2.152,4.588,4.797c0.019,2.503-2.178,4.755-4.653,4.767
		c-2.621,0.013-5.006-2.312-4.947-4.822C212.94,324.288,215.265,322.088,217.89,322.132z"/>
	<path fill="#224485" d="M265.101,273.167c-0.032,2.847-2.196,4.935-5.041,4.866c-2.422-0.059-4.602-2.377-4.551-4.839
		c0.053-2.575,2.315-4.683,5.007-4.668C263.172,268.543,265.131,270.525,265.101,273.167z"/>
	<path fill="#224485" d="M207.137,268.484c2.738,0.068,4.785,2.23,4.692,4.953c-0.084,2.462-2.338,4.57-4.89,4.574
		c-2.629,0.003-4.74-2.27-4.662-5.021C202.348,270.513,204.604,268.421,207.137,268.484z"/>
	<path fill="#224485" d="M222.412,305.684c0.298,2.008-2.037,4.49-4.563,4.596c-2.511,0.105-5.103-2.646-5.016-5.13
		c0.083-2.374,2.535-4.599,4.972-4.51C220.6,300.743,222.456,302.775,222.412,305.684z"/>
	<path fill="#224485" d="M211.785,305.296c0.01,2.809-2.046,4.895-4.782,4.853c-2.729-0.042-4.78-2.184-4.719-4.929
		c0.055-2.49,2.301-4.674,4.797-4.667C209.522,300.56,211.776,302.833,211.785,305.296z"/>
	<path fill="#224485" d="M191.644,251.674c-0.027-2.684,2.006-4.644,4.87-4.695c2.411-0.043,4.618,2.05,4.65,4.408
		c0.038,2.797-2.231,5.146-4.919,5.094C193.809,256.434,191.669,254.199,191.644,251.674z"/>
	<path fill="#224485" d="M243.876,272.801c0.003,2.694-2.149,5.085-4.636,5.148c-2.717,0.07-5.077-2.132-5.021-4.682
		c0.058-2.634,2.136-4.805,4.621-4.826C241.5,268.418,243.873,270.473,243.876,272.801z"/>
	<path fill="#224485" d="M202.284,391.222c0.058-2.724,2.416-4.857,5.238-4.738c2.317,0.098,4.275,2.31,4.263,4.816
		c-0.013,2.666-2.241,4.795-4.956,4.735C204.256,395.979,202.228,393.831,202.284,391.222z"/>
	<path fill="#224485" d="M228.404,342.367c-2.541,0.029-4.822-2.088-4.896-4.545c-0.077-2.54,2.222-4.941,4.793-5.007
		c2.449-0.063,4.813,2.18,4.873,4.622C233.241,340.153,231.129,342.336,228.404,342.367z"/>
	<path fill="#224485" d="M185.49,268.44c2.949,0.056,5.033,2.143,4.99,4.996c-0.037,2.426-2.371,4.587-4.869,4.605
		c-2.174,0.016-4.833-2.51-4.712-4.772C181.038,270.672,183.078,268.393,185.49,268.44z"/>
	<path fill="#224485" d="M196.649,322.159c2.503,0.087,4.518,2.265,4.499,4.863c-0.018,2.482-2.314,4.747-4.732,4.668
		c-2.881-0.094-4.775-2.057-4.712-4.882C191.767,324.043,193.874,322.062,196.649,322.159z"/>
	<path fill="#224485" d="M196.484,311.391c2.801,0.117,4.777,2.217,4.678,4.97c-0.093,2.588-2.257,4.639-4.817,4.566
		c-2.797-0.08-4.736-2.164-4.624-4.97C191.828,313.295,193.926,311.284,196.484,311.391z"/>
	<path fill="#224485" d="M233.136,316.317c0.029,2.302-2.397,4.705-4.736,4.691c-2.472-0.015-4.967-2.464-4.952-4.862
		c0.015-2.46,2.531-4.924,4.964-4.86C230.959,311.353,233.103,313.636,233.136,316.317z"/>
	<path fill="#224485" d="M196.269,343.51c2.57-0.014,4.898,2.231,4.899,4.724c0.002,2.625-2.264,5-4.73,4.958
		c-2.702-0.046-4.748-2.166-4.739-4.911C191.708,345.702,193.795,343.523,196.269,343.51z"/>
	<path fill="#224485" d="M190.45,283.882c0.044,2.735-2.019,4.853-4.768,4.897c-2.323,0.037-4.62-2.292-4.709-4.775
		c-0.089-2.484,2.084-4.81,4.536-4.856C188.211,279.098,190.408,281.202,190.45,283.882z"/>
	<path fill="#224485" d="M233.121,284.226c-0.075,2.428-2.349,4.568-4.83,4.548c-2.494-0.021-4.887-2.464-4.824-4.926
		c0.063-2.451,2.597-4.785,5.089-4.685C231.24,279.27,233.207,281.451,233.121,284.226z"/>
	<path fill="#224485" d="M243.811,284.159c0.014,2.086-2.46,4.599-4.569,4.64c-2.489,0.048-5.018-2.377-5.023-4.817
		c-0.005-2.782,1.976-4.713,4.891-4.764C241.733,279.17,243.792,281.334,243.811,284.159z"/>
	<path fill="#224485" d="M206.982,289.878c2.714,0.005,4.797,2.084,4.855,4.846c0.052,2.446-2.154,4.62-4.732,4.663
		c-2.718,0.046-4.877-2.102-4.817-4.792C202.346,291.982,204.445,289.873,206.982,289.878z"/>
	<path fill="#224485" d="M222.511,262.583c0.037,2.263-2.207,4.595-4.508,4.684c-2.507,0.098-5.008-2.214-5.114-4.728
		c-0.102-2.413,2.152-4.98,4.555-4.929C220.368,257.673,222.188,259.267,222.511,262.583z"/>
	<path fill="#224485" d="M233.129,262.691c-0.008,2.423-2.309,4.577-4.829,4.522c-2.477-0.055-4.78-2.258-4.85-4.64
		c-0.072-2.472,2.31-4.926,4.804-4.949C230.941,257.6,233.139,259.885,233.129,262.691z"/>
	<path fill="#224485" d="M249.543,267.222c-2.769-0.072-4.705-2.148-4.6-4.929c0.103-2.71,2.334-4.786,4.997-4.65
		c2.685,0.137,4.553,2.282,4.471,5.135C254.342,265.227,252.083,267.288,249.543,267.222z"/>
	<path fill="#224485" d="M211.744,348.541c-0.134,2.6-2.331,4.731-4.79,4.647c-2.6-0.089-4.761-2.445-4.665-5.083
		c0.091-2.502,2.518-4.671,5.107-4.566C209.818,343.637,211.875,346.004,211.744,348.541z"/>
	<path fill="#224485" d="M196.423,396.038c-2.606,0.032-4.694-2.008-4.731-4.622c-0.038-2.656,1.963-4.881,4.429-4.925
		c2.837-0.051,5.058,2.125,5.038,4.935C201.141,394.028,199.112,396.005,196.423,396.038z"/>
	<path fill="#224485" d="M222.46,240.869c0.043,2.552-2.03,4.848-4.466,4.946c-2.702,0.109-5.097-2.189-5.102-4.897
		c-0.005-2.559,2.273-4.81,4.898-4.843C220.085,236.047,222.418,238.442,222.46,240.869z"/>
	<path fill="#224485" d="M249.766,277.875c-2.919,0.045-4.822-1.767-4.84-4.608c-0.017-2.659,2.14-4.843,4.791-4.851
		c2.745-0.009,4.797,2.19,4.792,5.132C254.506,275.78,252.252,277.836,249.766,277.875z"/>
	<path fill="#224485" d="M217.708,256.597c-2.335,0.022-4.854-2.566-4.879-5.012c-0.023-2.185,2.329-4.595,4.568-4.68
		c2.788-0.106,5.028,2.131,5.066,4.951C222.504,254.858,219.726,256.368,217.708,256.597z"/>
	<path fill="#224485" d="M206.945,331.715c-2.586-0.037-4.652-2.381-4.696-5.047c-0.032-1.908,2.582-4.785,4.894-4.569
		c2.659,0.248,4.74,2.294,4.653,5.005C211.716,329.546,209.398,331.75,206.945,331.715z"/>
	<path fill="#224485" d="M211.803,251.401c0.046,2.726-2.066,5.103-4.573,5.146c-2.337,0.04-4.9-2.494-4.956-4.899
		c-0.056-2.433,2.199-4.755,4.638-4.776C209.371,246.851,211.763,249.066,211.803,251.401z"/>
	<path fill="#224485" d="M159.713,240.935c0.102-2.648,2.351-4.854,4.915-4.821c2.414,0.031,4.648,2.411,4.568,4.867
		c-0.091,2.789-2.243,4.852-4.924,4.72C161.566,245.568,159.613,243.527,159.713,240.935z"/>
	<path fill="#224485" d="M190.587,251.439c0.025,2.624-2.487,5.219-4.976,5.141c-2.446-0.077-4.654-2.4-4.634-4.874
		c0.02-2.467,2.217-4.782,4.648-4.898C187.773,246.705,190.566,249.313,190.587,251.439z"/>
	<path fill="#224485" d="M190.361,240.958c-0.104,2.898-2.055,4.864-4.778,4.817c-2.553-0.044-4.729-2.437-4.624-5.084
		c0.103-2.58,2.459-4.599,5.205-4.461C188.648,236.356,190.453,238.389,190.361,240.958z"/>
	<path fill="#224485" d="M206.904,354.229c2.722,0.03,4.932,2.239,4.852,4.847c-0.082,2.648-2.177,4.82-4.609,4.78
		c-2.846-0.047-4.966-2.268-4.865-5.098C202.366,356.396,204.603,354.204,206.904,354.229z"/>
	<path fill="#224485" d="M196.327,310.114c-2.562,0.023-4.572-1.993-4.643-4.658c-0.07-2.621,2.176-4.925,4.805-4.93
		c2.326-0.004,4.684,2.425,4.68,4.822C201.164,308.146,199.191,310.088,196.327,310.114z"/>
	<path fill="#224485" d="M179.825,262.42c0.027,2.49-2.117,4.743-4.594,4.827c-2.745,0.093-4.884-2.134-4.865-5.068
		c0.014-2.278,2.312-4.574,4.563-4.558C177.617,257.64,179.796,259.776,179.825,262.42z"/>
	<path fill="#224485" d="M174.984,245.62c-2.502-0.064-4.901-2.322-4.908-4.618c-0.007-2.323,2.717-4.989,5.013-4.907
		c2.684,0.096,4.862,2.42,4.724,5.042C179.669,243.908,177.747,245.691,174.984,245.62z"/>
	<path fill="#224485" d="M201.169,240.941c0.013,2.63-2.256,4.87-4.867,4.804c-2.276-0.057-4.749-2.582-4.726-4.826
		c0.026-2.481,2.25-4.719,4.718-4.747C199.016,236.142,201.156,238.235,201.169,240.941z"/>
	<path fill="#224485" d="M217.438,342.345c-2.742-0.155-4.699-2.356-4.536-5.102c0.146-2.455,2.726-4.585,5.343-4.411
		c2.34,0.156,4.313,2.592,4.206,5.195C222.349,340.537,220.077,342.493,217.438,342.345z"/>
	<path fill="#224485" d="M196.155,363.837c-2.333-0.033-4.518-2.406-4.519-4.908c-0.001-2.405,2.289-4.68,4.756-4.726
		c2.343-0.044,4.776,2.343,4.779,4.689C201.176,361.711,198.979,363.876,196.155,363.837z"/>
	<path fill="#224485" d="M217.731,268.556c2.825-0.031,4.63,1.931,4.741,4.814c0.096,2.491-2.605,4.615-4.489,4.644
		c-2.666,0.041-5.064-2.118-5.07-4.659C212.908,270.595,214.923,268.587,217.731,268.556z"/>
	<path fill="#224485" d="M196.303,332.872c2.727,0.026,4.816,2.089,4.858,4.799c0.039,2.493-2.339,4.764-4.934,4.714
		c-2.553-0.05-4.587-2.196-4.527-4.776C191.762,335.014,193.866,332.849,196.303,332.872z"/>
	<path fill="#224485" d="M233.04,305.405c-0.066,2.744-2.232,4.862-4.878,4.77c-2.46-0.085-4.697-2.351-4.705-4.765
		c-0.008-2.378,2.57-4.802,5.044-4.743C231.146,300.73,233.103,302.772,233.04,305.405z"/>
	<path fill="#224485" d="M201.153,273.183c-0.03,2.812-2.12,4.878-4.847,4.792c-2.511-0.08-4.717-2.274-4.743-4.716
		c-0.028-2.69,2.138-4.779,4.901-4.725C199.096,268.586,201.18,270.652,201.153,273.183z"/>
	<path fill="#224485" d="M174.873,277.828c-2.522-0.036-4.731-2.222-4.651-4.601c0.084-2.478,2.342-4.744,4.757-4.775
		c2.63-0.034,4.794,2.151,4.781,4.827C179.748,276.1,177.846,277.87,174.873,277.828z"/>
	<path fill="#224485" d="M217.619,386.699c2.511-0.042,4.71,1.786,4.751,3.95c0.055,2.94-2.245,5.419-4.985,5.374
		c-2.233-0.037-4.321-2.143-4.381-4.418C212.925,388.597,214.664,386.748,217.619,386.699z"/>
	<path fill="#224485" d="M179.794,230.46c-0.05,2.636-2.074,4.55-4.79,4.53c-2.465-0.018-4.717-2.271-4.705-4.708
		c0.013-2.714,2.254-4.948,4.852-4.836C177.911,225.565,179.848,227.655,179.794,230.46z"/>
	<path fill="#224485" d="M169.183,230.485c-0.022,2.466-2.308,4.589-4.858,4.513c-2.643-0.079-4.74-2.314-4.712-5.023
		c0.022-2.159,2.463-4.567,4.656-4.595C167.008,225.345,169.209,227.631,169.183,230.485z"/>
</g>
<g opacity="0.5">
	<path fill="#707070" d="M308.798,15.576c-0.022-2.693,2.042-4.8,4.735-4.832c2.687-0.033,4.902,2.12,4.868,4.733
		c-0.034,2.712-2.156,4.905-4.774,4.926C311.422,20.419,308.527,18.276,308.798,15.576z"/>
	<path fill="#707070" d="M303.081,63.251c-2.789,0.025-5.184-2.251-5.114-4.859c0.067-2.523,2.469-4.756,5.066-4.71
		c2.556,0.046,4.75,2.199,4.732,4.644C307.744,61.174,305.792,63.227,303.081,63.251z"/>
	<path fill="#707070" d="M307.85,90.47c0.058,2.577-2.203,4.964-4.762,5.027c-2.602,0.064-4.98-2.185-5.025-4.752
		c-0.04-2.308,2.357-4.88,4.638-4.976C305.211,85.662,307.795,88.021,307.85,90.47z"/>
	<path fill="#707070" d="M275.733,47.884c-0.001,2.452-2.21,4.683-4.698,4.745c-2.522,0.062-4.811-2.246-4.838-4.88
		c-0.03-2.885,1.987-4.77,5.093-4.759C273.804,42.999,275.734,45.125,275.733,47.884z"/>
	<path fill="#707070" d="M275.804,36.999c-0.011,2.596-2.386,4.965-4.895,4.883c-2.602-0.085-4.771-2.387-4.726-5.015
		c0.045-2.626,2.349-4.813,4.986-4.733C273.594,32.208,275.815,34.538,275.804,36.999z"/>
	<path fill="#707070" d="M275.654,69.383c-0.112,2.722-2.214,4.813-4.66,4.637c-2.898-0.209-4.935-2.248-4.8-4.806
		c0.154-2.915,2.367-5.007,5.121-4.838C273.778,64.526,275.76,66.813,275.654,69.383z"/>
	<path fill="#707070" d="M243.92,90.637c-0.006,2.562-2.327,4.836-4.929,4.83c-2.736-0.006-4.745-2.086-4.733-4.898
		c0.012-2.597,2.037-4.629,4.659-4.677C241.507,85.844,243.926,88.139,243.92,90.637z"/>
	<path fill="#707070" d="M281.411,63.218c-2.483-0.015-4.722-2.234-4.653-4.612c0.082-2.867,2.007-4.852,4.733-4.88
		c2.802-0.029,4.905,1.948,4.956,4.659C286.499,61.169,284.346,63.235,281.411,63.218z"/>
	<path fill="#707070" d="M271.208,10.688c2.487,0.052,4.551,2.299,4.497,4.896c-0.058,2.801-2.223,4.98-4.817,4.847
		c-2.56-0.131-4.742-2.338-4.693-4.748C266.252,12.809,268.439,10.63,271.208,10.688z"/>
	<path fill="#707070" d="M260.284,64.378c2.456-0.057,4.711,2.076,4.836,4.573c0.13,2.589-2.039,5.049-4.546,5.157
		c-2.614,0.112-5.124-2.267-5.135-4.869C255.428,66.695,257.677,64.438,260.284,64.378z"/>
	<path fill="#707070" d="M260.474,9.633c-2.655,0.046-4.875-1.93-4.992-4.442c-0.133-2.857,1.99-5.131,4.817-5.161
		c2.608-0.028,4.773,2.027,4.811,4.568C265.154,7.41,263.148,9.588,260.474,9.633z"/>
	<path fill="#707070" d="M297.098,26.223c-0.048,2.662-2.294,4.897-4.875,4.849c-2.531-0.046-4.817-2.406-4.807-4.961
		c0.011-2.515,2.382-4.687,5.063-4.635C294.963,21.524,297.142,23.764,297.098,26.223z"/>
	<path fill="#707070" d="M307.827,36.847c-0.047,2.81-2.347,5.093-5.032,4.996c-2.454-0.089-4.676-2.386-4.685-4.842
		c-0.009-2.535,2.385-4.903,4.939-4.887C305.504,32.13,307.867,34.471,307.827,36.847z"/>
	<path fill="#707070" d="M307.838,15.332c0.064,2.711-2.29,5.124-4.972,5.098c-2.38-0.023-5.131-2.671-4.892-4.967
		c0.297-2.858,2.503-4.781,4.754-4.731C305.437,10.793,307.778,12.775,307.838,15.332z"/>
	<path fill="#707070" d="M281.599,10.709c2.585-0.024,4.935,2.286,4.901,4.817c-0.035,2.621-2.25,4.814-4.906,4.858
		c-2.614,0.043-4.858-2.354-4.829-5.158C276.79,12.811,279.014,10.732,281.599,10.709z"/>
	<path fill="#707070" d="M281.345,41.86c-2.611-0.238-4.753-2.686-4.562-5.212c0.197-2.598,2.7-4.734,5.211-4.447
		c2.781,0.318,4.61,2.536,4.347,5.272C286.095,40.021,283.752,42.079,281.345,41.86z"/>
	<path fill="#707070" d="M297.117,15.933c-0.142,2.412-2.65,4.639-5.028,4.464c-2.743-0.202-4.78-2.48-4.574-5.117
		c0.197-2.537,2.533-4.78,4.84-4.648C295.062,10.786,297.275,13.25,297.117,15.933z"/>
	<path fill="#707070" d="M296.98,90.615c0.019,2.841-1.935,4.859-4.686,4.841c-2.687-0.017-4.83-2.181-4.804-4.85
		c0.025-2.596,2.048-4.609,4.668-4.713C294.437,85.802,297.197,87.635,296.98,90.615z"/>
	<path fill="#707070" d="M207.225,149.161c-2.65,0.031-4.89-2.154-4.941-4.822c-0.045-2.374,2.303-4.865,4.615-4.894
		c2.677-0.034,4.939,2.19,4.907,4.825C211.774,146.878,209.662,149.133,207.225,149.161z"/>
	<path fill="#707070" d="M254.483,69.224c0.021,2.468-2.396,4.911-4.871,4.924c-2.482,0.013-4.645-2.301-4.705-5.035
		c-0.052-2.353,2.262-4.687,4.7-4.742C252.151,64.313,254.461,66.613,254.483,69.224z"/>
	<path fill="#707070" d="M281.515,21.487c2.629-0.002,4.978,2.242,4.988,4.766c0.01,2.478-2.416,4.87-4.941,4.873
		c-2.471,0.003-4.815-2.483-4.845-4.976C276.693,24.236,279.095,21.168,281.515,21.487z"/>
	<path fill="#707070" d="M275.712,4.989c-0.054,2.55-2.214,4.623-4.757,4.565c-2.887-0.066-4.753-2.227-4.827-5.123
		c-0.051-1.988,2.375-4.491,5.003-4.412C273.986,0.104,275.775,2.042,275.712,4.989z"/>
	<path fill="#707070" d="M281.764,9.568c-2.633,0.059-4.881-1.916-4.988-4.382c-0.122-2.826,2.03-5.146,4.81-5.185
		c2.627-0.037,4.946,2.241,4.925,4.839C286.492,7.32,284.292,9.511,281.764,9.568z"/>
	<path fill="#707070" d="M234.273,69.133c-0.023-2.513,2.099-4.701,4.607-4.751c2.54-0.05,4.929,2.208,5.031,4.755
		c0.097,2.411-2.376,4.931-4.86,4.952C236.501,74.112,234.297,71.826,234.273,69.133z"/>
	<path fill="#707070" d="M296.932,69.523c0,2.516-2.091,4.515-4.764,4.554c-2.44,0.035-4.659-2.195-4.712-4.735
		c-0.051-2.499,2.397-5.049,4.791-4.989C295.15,64.425,296.932,66.391,296.932,69.523z"/>
	<path fill="#707070" d="M190.569,176.756c0.028,2.369-2.32,4.624-4.816,4.626c-2.443,0.002-4.731-2.191-4.83-4.631
		c-0.108-2.661,2.287-5.122,4.934-5.073C188.284,171.724,190.538,174.153,190.569,176.756z"/>
	<path fill="#707070" d="M243.904,47.913c-0.035,2.422-2.336,4.666-4.782,4.666c-2.7-0.001-5.016-2.367-4.968-5.074
		c0.044-2.443,2.268-4.466,4.914-4.471C241.637,43.029,243.941,45.353,243.904,47.913z"/>
	<path fill="#707070" d="M254.396,47.578c-0.095,2.931-2.18,5.044-4.917,4.986c-2.645-0.057-4.706-2.322-4.571-5.022
		c0.131-2.614,2.198-4.565,4.8-4.532C252.404,43.044,254.477,45.065,254.396,47.578z"/>
	<path fill="#707070" d="M286.524,47.758c-0.033,2.62-2.542,4.927-5.26,4.837c-2.323-0.077-4.603-2.559-4.53-4.931
		c0.076-2.481,2.31-4.657,4.796-4.67C284.166,42.979,286.556,45.259,286.524,47.758z"/>
	<path fill="#707070" d="M303.04,42.976c2.589,0.035,4.804,2.356,4.768,4.995c-0.033,2.391-2.392,4.648-4.858,4.647
		c-2.532-0.001-5.023-2.421-4.986-4.845C298,45.351,300.549,42.942,303.04,42.976z"/>
	<path fill="#707070" d="M196.432,159.838c-2.657,0.036-4.746-1.914-4.798-4.479c-0.055-2.73,2.006-4.982,4.587-5.012
		c2.72-0.031,4.93,2.059,4.952,4.682C201.196,157.675,199.098,159.803,196.432,159.838z"/>
	<path fill="#707070" d="M222.392,122.809c-0.08,3.262-1.828,4.606-4.779,4.835c-2.501,0.194-4.658-2.129-4.671-4.706
		c-0.014-2.701,2.136-4.868,4.821-4.858C220.266,118.09,222.424,120.294,222.392,122.809z"/>
	<path fill="#707070" d="M302.807,21.468c2.555-0.058,5.016,2.259,5.031,4.737c0.014,2.377-2.25,4.751-4.651,4.878
		c-2.59,0.136-5.242-2.357-5.198-4.888C298.029,23.881,300.432,21.523,302.807,21.468z"/>
	<path fill="#707070" d="M196.252,170.517c-2.637,0.195-4.818-2.663-4.687-4.941c0.153-2.662,2.47-4.75,5.301-4.591
		c2.167,0.122,4.318,2.564,4.3,4.882C201.143,168.673,199.093,170.613,196.252,170.517z"/>
	<path fill="#707070" d="M260.336,41.73c-2.767,0.025-4.791-2.011-4.769-4.798c0.019-2.475,2.289-4.854,4.595-4.817
		c2.578,0.042,4.89,2.28,4.942,4.785C265.16,39.619,263.1,41.705,260.336,41.73z"/>
	<path fill="#707070" d="M233.198,47.786c0.034,2.446-2.382,4.81-4.936,4.829c-2.321,0.017-4.754-2.338-4.822-4.668
		c-0.074-2.507,2.213-4.825,4.824-4.89C230.878,42.991,233.161,45.179,233.198,47.786z"/>
	<path fill="#707070" d="M132.246,139.448c2.996,0.414,4.698,1.562,4.945,4.772c0.193,2.503-2.068,4.873-4.48,4.927
		c-2.726,0.06-5.098-2.319-5.011-5.026C127.777,141.767,130.038,139.442,132.246,139.448z"/>
	<path fill="#707070" d="M265.13,47.709c-0.038,2.693-2.427,4.992-5.099,4.908c-2.365-0.075-4.571-2.486-4.509-4.927
		c0.068-2.654,2.274-4.71,4.968-4.631C263.125,43.136,265.166,45.182,265.13,47.709z"/>
	<path fill="#707070" d="M185.934,128.86c2.538,0.04,4.515,2.136,4.526,4.798c0.011,2.499-2.181,4.712-4.682,4.726
		c-2.553,0.014-4.84-2.299-4.838-4.894C180.942,130.881,183.169,128.816,185.934,128.86z"/>
	<path fill="#707070" d="M147.871,187.339c0.056,3.3-2.367,4.744-4.808,4.677c-2.849-0.079-4.694-1.827-4.694-4.809
		c0-2.508,2.146-4.67,4.655-4.699C145.646,182.478,147.851,184.675,147.871,187.339z"/>
	<path fill="#707070" d="M211.777,90.893c-0.171,2.741-2.45,4.794-5.077,4.572c-2.529-0.213-4.511-2.461-4.42-5.012
		c0.092-2.568,2.55-4.762,5.121-4.571C209.924,86.07,211.934,88.371,211.777,90.893z"/>
	<path fill="#707070" d="M164.245,95.397c-2.526-0.157-4.755-2.423-4.684-4.76c0.078-2.575,2.501-4.876,5.004-4.754
		c2.646,0.129,4.748,2.469,4.574,5.092C168.965,93.606,166.806,95.557,164.245,95.397z"/>
	<path fill="#707070" d="M185.617,118.052c2.718-0.006,4.799,2.046,4.855,4.786c0.054,2.682-2.147,4.925-4.765,4.854
		c-2.496-0.067-4.747-2.252-4.785-4.646C180.881,120.451,183.131,118.057,185.617,118.052z"/>
	<path fill="#707070" d="M196.367,84.754c-2.429,0.038-4.62-2.159-4.697-4.709c-0.081-2.666,2.002-4.763,4.809-4.84
		c2.526-0.07,4.68,2.057,4.688,4.629C201.175,82.461,198.978,84.714,196.367,84.754z"/>
	<path fill="#707070" d="M174.966,75.192c2.503-0.054,4.802,2.056,4.91,4.505c0.115,2.61-2.058,4.977-4.622,5.035
		c-2.591,0.058-5.059-2.137-5.187-4.612C169.95,77.869,172.561,75.243,174.966,75.192z"/>
	<path fill="#707070" d="M270.966,21.485c2.582-0.021,4.796,2.092,4.796,4.576c0,2.816-2.089,5.085-4.653,5.053
		c-2.736-0.034-4.897-2.12-4.92-4.747C266.166,23.721,268.334,21.506,270.966,21.485z"/>
	<path fill="#707070" d="M207.401,84.746c-2.854,0.02-5.123-2.134-5.13-4.871c-0.007-2.462,2.481-5.003,4.952-4.758
		c2.533,0.252,4.499,2.047,4.577,4.615C211.879,82.342,209.739,84.729,207.401,84.746z"/>
	<path fill="#707070" d="M296.993,48.032c0.274,2.155-1.936,4.642-4.977,4.507c-2.381-0.106-4.734-2.455-4.629-4.795
		c0.117-2.616,2.383-4.746,5.033-4.732C295.132,43.026,297.041,45.121,296.993,48.032z"/>
	<path fill="#707070" d="M196.391,106.084c-2.704,0.004-4.766-1.948-4.776-4.52c-0.01-2.661,2.214-4.982,4.771-4.978
		c2.529,0.004,4.806,2.378,4.779,4.981C201.138,104.162,199.11,106.08,196.391,106.084z"/>
	<path fill="#707070" d="M281.638,64.39c2.446-0.028,4.806,2.235,4.838,4.639c0.036,2.772-2.222,5.074-4.973,5.069
		c-2.292-0.004-4.707-2.412-4.776-4.765C276.656,66.977,279.198,64.418,281.638,64.39z"/>
	<path fill="#707070" d="M228.463,64.368c2.282-0.022,4.779,2.483,4.787,4.802c0.008,2.316-2.424,4.861-4.705,4.923
		c-2.573,0.07-4.869-2.164-4.933-4.801C223.55,66.674,225.795,64.394,228.463,64.368z"/>
	<path fill="#707070" d="M296.957,37.051c-0.019,2.767-2.088,4.876-4.781,4.875c-2.452-0.001-4.771-2.493-4.717-5.068
		c0.049-2.3,2.309-4.656,4.507-4.698C294.808,32.104,296.975,34.229,296.957,37.051z"/>
	<path fill="#707070" d="M260.086,84.605c-2.585-0.002-4.627-2.045-4.64-4.642c-0.013-2.473,2.21-4.73,4.7-4.773
		c2.791-0.048,4.916,1.972,4.944,4.7C265.121,82.837,263.241,84.608,260.086,84.605z"/>
	<path fill="#707070" d="M286.422,79.985c-0.037,2.606-2.397,4.935-4.901,4.836c-2.463-0.097-4.855-2.612-4.798-5.045
		c0.056-2.398,2.444-4.661,4.836-4.582C284.427,75.289,286.46,77.291,286.422,79.985z"/>
	<path fill="#707070" d="M153.713,181.412c-2.231-0.003-4.756-2.519-4.789-4.771c-0.034-2.371,2.276-4.838,4.582-4.894
		c2.551-0.062,4.986,2.247,5.002,4.743C158.527,179.178,156.346,181.416,153.713,181.412z"/>
	<path fill="#707070" d="M174.97,150.302c2.637-0.073,4.866,2.109,4.894,4.792c0.025,2.408-2.187,4.701-4.666,4.835
		c-2.227,0.121-4.88-2.324-4.972-4.582C170.122,152.801,172.404,150.373,174.97,150.302z"/>
	<path fill="#707070" d="M175.066,138.27c-2.691-0.054-5.24-2.422-4.91-4.808c0.333-2.41,2.264-4.765,4.875-4.658
		c2.56,0.105,4.791,2.187,4.809,4.64C179.86,136.278,177.835,138.326,175.066,138.27z"/>
	<path fill="#707070" d="M238.981,106.076c-2.557-0.008-4.726-2.138-4.746-4.661c-0.02-2.618,2.304-4.896,4.912-4.815
		c2.558,0.08,4.71,2.401,4.71,5.081C243.856,104.201,241.767,106.084,238.981,106.076z"/>
	<path fill="#707070" d="M174.901,182.549c2.824-0.027,4.872,1.94,4.869,4.677c-0.003,2.66-2.004,4.838-4.467,4.863
		c-2.635,0.026-5.231-2.126-5.144-4.613C170.25,184.878,172.308,182.331,174.901,182.549z"/>
	<path fill="#707070" d="M174.972,21.518c2.776,0.051,4.979,2.249,4.861,4.849c-0.129,2.831-2.186,4.694-4.968,4.659
		c-2.519-0.031-4.474-2.295-4.729-4.534C169.877,24.226,172.699,21.477,174.972,21.518z"/>
	<path fill="#707070" d="M217.822,149.197c-2.659-0.043-5.027-2.448-4.996-5.074c0.026-2.197,2.666-4.745,4.852-4.683
		c2.564,0.072,4.815,2.423,4.76,4.973C222.384,146.957,220.185,149.235,217.822,149.197z"/>
	<path fill="#707070" d="M254.455,58.36c0.031,2.679-2.037,4.818-4.712,4.875c-2.739,0.058-4.777-1.958-4.791-4.74
		c-0.013-2.507,2.144-4.775,4.581-4.817C252.243,53.63,254.424,55.705,254.455,58.36z"/>
	<path fill="#707070" d="M234.427,26.34c-0.135-3.606,1.99-4.664,4.586-4.682c3.326-0.024,4.858,2.359,4.903,4.636
		c0.048,2.409-2.813,4.919-5.318,4.793C236.091,30.961,234.365,28.997,234.427,26.34z"/>
	<path fill="#707070" d="M260.41,63.266c-2.867,0.024-4.952-2.1-4.91-5.003c0.035-2.423,2.282-4.514,4.878-4.539
		c2.539-0.024,4.695,2.083,4.741,4.633C265.168,61.109,263.121,63.243,260.41,63.266z"/>
	<path fill="#707070" d="M249.9,95.414c-2.878,0.036-4.889-1.857-4.962-4.605c-0.067-2.518,1.381-4.649,4.666-4.964
		c2.495-0.239,4.871,2.249,4.84,4.819C254.411,93.344,252.461,95.382,249.9,95.414z"/>
	<path fill="#707070" d="M196.067,148.996c-2.698-0.151-4.408-2.334-4.468-5.164c-0.048-2.267,2.899-4.692,5.071-4.371
		c2.746,0.406,4.556,2.496,4.499,5.016C201.109,147.113,198.792,149.149,196.067,148.996z"/>
	<path fill="#707070" d="M275.741,79.823c0.007,2.65-2.044,4.897-4.502,4.931c-2.85,0.04-5.077-1.982-5.058-4.592
		c0.019-2.692,2.38-5.016,5.083-5.002C273.566,75.171,275.735,77.43,275.741,79.823z"/>
	<path fill="#707070" d="M191.659,123.056c-0.021-2.72,2.079-5.004,4.631-5.035c2.718-0.033,4.861,2.206,4.847,5.064
		c-0.012,2.46-2.271,4.653-4.75,4.611C193.922,127.654,191.678,125.452,191.659,123.056z"/>
	<path fill="#707070" d="M228.184,138.295c-2.665-0.009-4.768-2.222-4.726-4.971c0.036-2.305,2.533-4.55,5.003-4.498
		c2.503,0.052,4.706,2.294,4.691,4.775C233.136,136.322,231.037,138.305,228.184,138.295z"/>
	<path fill="#707070" d="M254.501,112.246c0.007,2.581-2.25,4.698-4.972,4.664c-2.429-0.031-4.622-2.355-4.581-4.856
		c0.039-2.393,2.175-4.649,4.469-4.72C252.206,107.247,254.493,109.457,254.501,112.246z"/>
	<path fill="#707070" d="M191.637,90.549c0.031-2.575,2.174-4.749,4.618-4.685c2.707,0.071,4.916,2.219,4.914,4.781
		c-0.002,2.689-2.134,4.807-4.83,4.798C193.72,95.433,191.604,93.231,191.637,90.549z"/>
	<path fill="#707070" d="M211.792,123.03c-0.011,2.399-2.263,4.608-4.745,4.653c-2.67,0.049-4.81-2.144-4.745-4.862
		c0.063-2.664,2.184-4.793,4.831-4.85C209.518,117.92,211.804,120.402,211.792,123.03z"/>
	<path fill="#707070" d="M202.287,133.419c0.088-2.524,2.371-4.741,4.785-4.616c2.2,0.114,4.972,1.803,4.727,5.221
		c-0.16,2.234-2.374,4.39-4.483,4.28C204.149,138.139,202.189,136.235,202.287,133.419z"/>
	<path fill="#707070" d="M201.161,133.469c0.036,2.764-2.156,4.91-5.01,4.907c-2.264-0.003-4.459-2.207-4.535-4.554
		c-0.09-2.767,2.054-4.967,4.881-5.009C198.95,128.776,201.128,130.951,201.161,133.469z"/>
	<path fill="#707070" d="M158.484,122.959c0.018,2.615-2.095,4.773-4.63,4.728c-2.613-0.046-4.921-2.336-4.909-4.87
		c0.012-2.384,2.368-4.778,4.686-4.762C156.286,118.073,158.465,120.275,158.484,122.959z"/>
	<path fill="#707070" d="M143.068,138.383c-2.522-0.173-4.749-1.785-4.697-4.928c0.042-2.512,2.195-4.653,4.75-4.651
		c2.492,0.001,4.711,2.2,4.757,4.712C147.928,136.215,145.76,138.408,143.068,138.383z"/>
	<path fill="#707070" d="M196.625,21.516c2.45,0.033,4.624,2.347,4.553,4.844c-0.071,2.51-2.251,4.687-4.736,4.73
		c-2.597,0.045-4.853-2.251-4.798-4.882C191.701,23.535,193.884,21.478,196.625,21.516z"/>
	<path fill="#707070" d="M137.178,187.276c-0.016,3.232-2.649,4.783-4.828,4.795c-2.586,0.014-4.72-2.36-4.625-5.024
		c0.084-2.369,2.281-4.556,4.565-4.541C134.984,182.523,137.208,184.694,137.178,187.276z"/>
	<path fill="#707070" d="M202.291,112.019c0.007-2.565,2.131-4.676,4.667-4.639c2.808,0.042,4.838,2.077,4.786,4.796
		c-0.056,2.87-1.961,4.767-4.801,4.777C204.319,116.964,202.283,114.804,202.291,112.019z"/>
	<path fill="#707070" d="M207.159,41.783c-2.714-0.03-4.884-2.187-4.865-4.837c0.018-2.525,2.18-4.725,4.67-4.754
		c2.669-0.031,4.889,2.197,4.844,4.862C211.764,39.669,209.659,41.811,207.159,41.783z"/>
	<path fill="#707070" d="M222.419,36.925c-0.019,2.739-2.114,4.874-4.841,4.933c-2.238,0.049-4.717-2.454-4.767-4.812
		c-0.049-2.28,2.403-4.84,4.695-4.902C220.083,32.074,222.436,34.363,222.419,36.925z"/>
	<path fill="#707070" d="M228.177,139.648c2.559-0.242,4.988,2.026,5.019,4.566c0.032,2.589-2.159,4.798-4.819,4.816
		c-2.751,0.018-4.851-2.014-4.886-4.728C223.46,141.823,225.616,139.682,228.177,139.648z"/>
	<path fill="#707070" d="M179.869,90.654c-0.006,2.662-2.188,4.811-4.868,4.794c-2.399-0.016-4.722-2.308-4.771-4.708
		c-0.052-2.573,2.186-4.738,4.919-4.758C177.581,85.964,179.874,88.234,179.869,90.654z"/>
	<path fill="#707070" d="M266.194,58.48c-0.004-2.692,2.082-4.747,4.824-4.754c2.664-0.007,4.705,2.13,4.685,4.905
		c-0.019,2.535-2.129,4.619-4.688,4.63C268.275,63.274,266.198,61.214,266.194,58.48z"/>
	<path fill="#707070" d="M297.094,58.25c0.068,2.824-2.061,5.038-4.861,5.055c-2.486,0.015-4.674-2.162-4.693-4.668
		c-0.02-2.635,2.097-4.841,4.751-4.953C294.702,53.583,297.034,55.8,297.094,58.25z"/>
	<path fill="#707070" d="M164.312,214.848c2.785-0.046,4.859,1.925,4.948,4.7c0.074,2.326-2.06,4.538-4.476,4.638
		c-2.867,0.119-5.088-1.873-5.186-4.703C159.51,216.961,162.147,214.569,164.312,214.848z"/>
	<path fill="#707070" d="M143.198,214.841c2.526-0.015,4.576,2.042,4.66,4.677c0.084,2.627-2.055,4.695-4.879,4.717
		c-2.27,0.018-4.586-2.189-4.65-4.43C138.245,216.885,140.234,214.858,143.198,214.841z"/>
	<path fill="#707070" d="M169.232,186.999c0.078,2.621-2.138,5.043-4.67,5.104c-2.695,0.065-4.912-2.209-4.949-5.076
		c-0.027-2.113,2.326-4.352,4.672-4.444C166.877,182.481,169.158,184.517,169.232,186.999z"/>
	<path fill="#707070" d="M179.896,208.73c0.001,2.545-2.383,4.919-4.903,4.882c-2.396-0.035-4.68-2.378-4.668-4.788
		c0.013-2.614,2.322-4.92,4.862-4.856C177.599,204.029,179.896,206.351,179.896,208.73z"/>
	<path fill="#707070" d="M222.512,155.191c-0.061,2.57-2.387,4.762-4.998,4.709c-2.619-0.052-4.675-2.34-4.546-5.058
		c0.113-2.375,2.298-4.594,4.53-4.602C220.268,150.23,222.576,152.509,222.512,155.191z"/>
	<path fill="#707070" d="M180.961,144.341c-0.065-2.499,2.311-4.866,4.913-4.895c2.096-0.023,4.602,2.427,4.692,4.587
		c0.111,2.664-2.255,5.113-4.964,5.139C183.174,149.195,181.029,146.962,180.961,144.341z"/>
	<path fill="#707070" d="M179.796,123.109c-0.057,2.529-2.225,4.6-4.781,4.568c-2.594-0.032-4.801-2.346-4.771-5.001
		c0.027-2.433,2.358-4.606,4.887-4.555C177.786,118.175,179.858,120.39,179.796,123.109z"/>
	<path fill="#707070" d="M211.77,155.307c-0.017,2.411-2.116,4.505-4.552,4.542c-2.748,0.042-4.981-2.078-4.953-4.702
		c0.029-2.651,2.206-4.821,4.877-4.86C209.698,150.25,211.79,152.519,211.77,155.307z"/>
	<path fill="#707070" d="M254.398,80.243c-0.013,2.381-2.378,4.607-4.865,4.582c-2.443-0.025-4.607-2.298-4.626-4.858
		c-0.02-2.662,1.993-4.746,4.59-4.751C252.406,75.21,254.414,77.27,254.398,80.243z"/>
	<path fill="#707070" d="M100.28,170.491c-2.575-0.115-4.574-2.279-4.49-4.861c0.083-2.552,2.278-4.636,4.813-4.569
		c2.603,0.069,4.87,2.51,4.676,5.035C105.086,168.596,102.803,170.603,100.28,170.491z"/>
	<path fill="#707070" d="M179.846,69.311c-0.006,2.492-2.357,4.687-5.006,4.673c-2.214-0.012-4.715-2.621-4.669-4.871
		c0.047-2.318,2.482-4.684,4.84-4.703C177.512,64.39,179.852,66.762,179.846,69.311z"/>
	<path fill="#707070" d="M296.941,4.465c0.03,3.153-1.743,5.115-4.643,5.138c-2.68,0.021-4.71-2.074-4.724-4.877
		c-0.014-2.649,1.96-4.654,4.607-4.679C294.991,0.02,296.916,1.807,296.941,4.465z"/>
	<path fill="#707070" d="M260.43,20.406c-2.486-0.01-4.701-2.386-4.713-5.053c-0.011-2.535,2.184-4.736,4.662-4.677
		c2.627,0.062,4.746,2.294,4.738,4.988C265.109,18.107,262.826,20.416,260.43,20.406z"/>
	<path fill="#707070" d="M190.453,15.399c0.042,2.611-1.994,4.864-4.458,4.932c-2.577,0.071-4.985-2.023-5.046-4.389
		c-0.075-2.909,2.014-5.162,4.798-5.172C188.304,10.762,190.412,12.835,190.453,15.399z"/>
	<path fill="#707070" d="M196.695,10.812c2.521-0.163,4.726,2.512,4.471,5.374c-0.194,2.175-2.689,4.323-4.934,4.189
		c-2.622-0.156-4.884-2.743-4.697-5.371C191.703,12.634,194.117,10.673,196.695,10.812z"/>
	<path fill="#707070" d="M100.681,64.45c2.271,0.043,4.657,2.41,4.616,4.58c-0.046,2.473-2.582,5.12-4.838,5.049
		c-2.552-0.08-4.767-2.472-4.719-5.095C95.784,66.621,98.2,64.403,100.681,64.45z"/>
	<path fill="#707070" d="M201.169,219.472c0.006,2.645-2.007,4.779-4.557,4.83c-2.733,0.055-5.071-2.263-5.023-4.978
		c0.044-2.466,2.276-4.528,4.869-4.498C199.089,214.857,201.164,216.903,201.169,219.472z"/>
	<path fill="#707070" d="M164.342,118.141c2.741,0.025,4.827,2.078,4.887,4.811c0.051,2.334-2.589,4.815-5.043,4.736
		c-2.3-0.073-4.61-2.401-4.585-4.619C159.632,120.273,161.707,118.117,164.342,118.141z"/>
	<path fill="#707070" d="M190.467,26.294c-0.004,2.538-2.166,4.718-4.669,4.707c-2.775-0.012-4.819-2.017-4.875-4.782
		c-0.052-2.539,2.274-4.753,4.948-4.711C188.366,21.548,190.471,23.739,190.467,26.294z"/>
	<path fill="#707070" d="M234.21,79.896c0.053-2.634,2.283-4.693,5.051-4.664c2.306,0.025,4.636,2.302,4.638,4.534
		c0.002,2.582-2.332,5.04-4.797,5.053C236.55,84.832,234.159,82.426,234.21,79.896z"/>
	<path fill="#707070" d="M126.541,165.987c0.004,2.439-2.212,4.52-4.804,4.511c-2.581-0.009-4.697-2.15-4.665-4.721
		c0.032-2.559,2.157-4.655,4.738-4.731C124.069,160.981,126.859,163.33,126.541,165.987z"/>
	<path fill="#707070" d="M138.367,79.915c0.01-2.64,2.19-4.713,4.946-4.706c2.395,0.006,4.566,2.279,4.603,4.82
		c0.037,2.459-2.421,4.748-5.036,4.691C140.303,84.664,138.356,82.592,138.367,79.915z"/>
	<path fill="#707070" d="M153.861,170.502c-2.697,0.015-4.971-2.154-4.949-4.718c0.021-2.433,2.497-4.781,5.008-4.749
		c2.245,0.029,4.534,2.296,4.596,4.553C158.594,168.357,156.575,170.487,153.861,170.502z"/>
	<path fill="#707070" d="M153.711,149.103c-2.544,0.038-4.831-2.337-4.784-4.969c0.04-2.281,2.614-4.923,4.83-4.691
		c2.148,0.225,4.657,1.525,4.715,4.737C158.521,146.881,156.424,149.062,153.711,149.103z"/>
	<path fill="#707070" d="M164.34,149.122c-2.405,0.021-4.768-2.29-4.826-4.719c-0.058-2.442,2.442-4.962,4.901-4.941
		c2.471,0.021,4.705,2.271,4.703,4.736C169.116,146.976,167.056,149.098,164.34,149.122z"/>
	<path fill="#707070" d="M185.826,170.537c-2.703,0.036-4.892-2.095-4.868-4.741c0.022-2.534,2.104-4.657,4.655-4.748
		c2.49-0.089,4.837,2.234,4.9,4.85C190.575,168.463,188.515,170.502,185.826,170.537z"/>
	<path fill="#707070" d="M249.864,41.81c-2.72,0.079-4.896-1.992-4.931-4.692c-0.035-2.734,1.98-4.873,4.7-4.988
		c2.311-0.098,4.721,2.178,4.87,4.597C254.656,39.226,252.364,41.738,249.864,41.81z"/>
	<path fill="#707070" d="M169.198,133.656c-0.075,2.645-2.437,4.911-4.963,4.761c-2.574-0.153-4.694-2.505-4.637-5.144
		c0.048-2.237,2.654-4.535,5.02-4.427C167.15,128.962,169.269,131.187,169.198,133.656z"/>
	<path fill="#707070" d="M175.03,181.398c-2.474,0.041-4.859-2.426-4.83-4.995c0.024-2.097,2.48-4.553,4.66-4.658
		c2.592-0.125,4.911,2.079,4.98,4.733C179.908,179.055,177.659,181.355,175.03,181.398z"/>
	<path fill="#707070" d="M127.753,176.369c0.025-2.534,2.391-4.734,5.003-4.651c2.309,0.073,4.399,2.448,4.414,5.016
		c0.013,2.314-2.354,4.63-4.737,4.635C129.987,181.374,127.727,178.96,127.753,176.369z"/>
	<path fill="#707070" d="M126.572,176.862c-0.053,2.261-2.354,4.5-4.659,4.533c-2.744,0.039-4.922-2.266-4.899-5.125
		c0.019-2.465,2.583-4.555,4.911-4.532C124.41,171.762,126.633,174.269,126.572,176.862z"/>
	<path fill="#707070" d="M175.035,139.643c2.59-0.032,4.829,2.078,4.837,4.558c0.009,2.598-2.219,4.959-4.768,5.051
		c-2.357,0.086-4.77-2.433-4.835-5.005C170.216,142.109,172.298,139.505,175.035,139.643z"/>
	<path fill="#707070" d="M191.642,69.256c-0.21-3.191,2.373-4.572,4.817-4.783c2.438-0.211,4.629,2.164,4.689,4.733
		c0.056,2.382-2.318,4.903-4.602,4.887C194.017,74.076,191.652,71.743,191.642,69.256z"/>
	<path fill="#707070" d="M190.469,69.402c0.023,2.399-2.063,4.521-4.513,4.592c-2.608,0.076-5.12-2.233-5.061-4.651
		c0.062-2.541,2.199-4.835,4.579-4.914C188.187,64.338,190.441,66.582,190.469,69.402z"/>
	<path fill="#707070" d="M201.175,112.362c-0.057,2.598-2.345,4.684-5.013,4.567c-2.509-0.109-4.556-2.27-4.548-4.802
		c0.009-2.693,2.37-4.916,5.156-4.749C199.493,107.541,201.244,110.153,201.175,112.362z"/>
	<path fill="#707070" d="M169.108,69.245c0,2.526-2.12,4.758-4.604,4.848c-2.254,0.081-4.892-2.417-4.878-4.621
		c0.018-2.767,2.297-5.101,4.962-5.081C167.052,64.408,169.108,66.617,169.108,69.245z"/>
	<path fill="#707070" d="M132.318,106.107c-2.577-0.044-4.62-2.128-4.605-4.698c0.014-2.404,2.392-4.898,4.614-4.841
		c2.815,0.073,4.891,2.131,4.856,4.814C137.149,104.129,135.063,106.154,132.318,106.107z"/>
	<path fill="#707070" d="M185.706,63.258c-2.609-0.035-4.862-2.295-4.761-4.922c0.106-2.757,2.166-4.461,5.113-4.548
		c2.119-0.062,4.534,2.419,4.469,4.378C190.424,61.249,188.487,63.295,185.706,63.258z"/>
	<path fill="#707070" d="M190.409,101.445c0.034,2.597-2.01,4.692-4.584,4.696c-2.67,0.004-4.814-1.993-4.813-4.483
		c0.001-2.841,1.964-5.003,4.586-5.052C188.255,96.557,190.372,98.686,190.409,101.445z"/>
	<path fill="#707070" d="M126.594,155.181c-0.129,2.661-2.455,4.818-5.015,4.652c-2.591-0.168-4.776-2.61-4.591-5.132
		c0.175-2.382,2.548-4.44,5.05-4.382C124.414,150.375,126.709,152.824,126.594,155.181z"/>
	<path fill="#707070" d="M158.467,90.632c0.004,2.689-2.162,4.825-4.866,4.8c-2.469-0.023-4.649-2.242-4.684-4.767
		c-0.034-2.456,2.472-4.908,4.945-4.838C156.419,85.9,158.463,88.033,158.467,90.632z"/>
	<path fill="#707070" d="M190.588,90.709c-0.049,2.566-2.361,4.757-5.024,4.761c-2.606,0.004-4.72-2.319-4.588-5.041
		c0.124-2.549,2.321-4.545,4.932-4.481C188.46,86.011,190.636,88.224,190.588,90.709z"/>
	<path fill="#707070" d="M217.635,138.441c-2.514-0.024-4.698-2.21-4.726-4.73c-0.028-2.599,2.19-4.837,4.838-4.88
		c2.367-0.039,4.7,2.29,4.725,4.716C222.498,136.172,220.231,138.466,217.635,138.441z"/>
	<path fill="#707070" d="M202.293,15.465c0.091-2.875,2.036-4.742,4.888-4.694c2.663,0.045,4.668,2.29,4.541,5.085
		c-0.111,2.437-2.229,4.586-4.634,4.466C203.96,20.167,202.031,17.748,202.293,15.465z"/>
	<path fill="#707070" d="M143.059,96.671c2.461-0.059,4.742,2.181,4.768,4.682c0.027,2.564-2.057,4.74-4.605,4.808
		c-2.565,0.068-4.747-1.981-4.844-4.548C138.274,98.802,140.228,96.739,143.059,96.671z"/>
	<path fill="#707070" d="M249.254,106.133c-2.571-0.15-4.511-2.343-4.348-4.913c0.16-2.508,2.668-4.791,5.123-4.664
		c2.586,0.134,4.569,2.613,4.412,5.515C254.314,104.444,251.956,106.29,249.254,106.133z"/>
	<path fill="#707070" d="M169.108,58.795c-0.053,2.513-2.249,4.528-4.84,4.442c-2.523-0.083-4.626-2.249-4.605-4.743
		c0.023-2.669,2.255-4.857,4.867-4.769C167.147,53.814,169.166,56.05,169.108,58.795z"/>
	<path fill="#707070" d="M233.173,58.403c-0.023,2.669-2.265,4.928-4.854,4.891c-2.663-0.039-4.742-2.272-4.665-5.011
		c0.077-2.763,1.964-4.569,4.738-4.536C230.922,53.776,233.194,55.989,233.173,58.403z"/>
	<path fill="#707070" d="M190.486,112.217c0.06,2.438-2.124,4.674-4.617,4.727c-2.539,0.054-4.711-1.98-4.822-4.516
		c-0.121-2.761,1.817-4.891,4.571-5.025C188.145,107.281,190.421,109.532,190.486,112.217z"/>
	<path fill="#707070" d="M169.176,155.267c-0.07,2.473-2.414,4.712-4.814,4.6c-2.628-0.124-4.754-2.227-4.735-4.685
		c0.021-2.735,2.169-4.914,4.799-4.868C167.03,150.359,169.25,152.674,169.176,155.267z"/>
	<path fill="#707070" d="M143.109,95.42c-2.469-0.067-4.729-1.781-4.757-4.887c-0.023-2.598,2.388-4.697,5.047-4.592
		c2.555,0.101,4.53,2.263,4.453,4.875C147.777,93.435,145.696,95.455,143.109,95.42z"/>
	<path fill="#707070" d="M147.85,144.348c-0.028,2.599-2.123,4.768-4.607,4.77c-2.672,0.002-4.85-2.142-4.89-4.816
		c-0.037-2.446,2.492-4.903,4.937-4.798C145.777,139.611,147.877,141.842,147.85,144.348z"/>
	<path fill="#707070" d="M137.147,122.556c0.057,2.825-1.886,5.064-4.585,5.085c-2.377,0.019-4.73-1.507-4.805-4.845
		c-0.056-2.455,2.267-4.726,4.724-4.725C134.859,118.071,137.099,120.225,137.147,122.556z"/>
	<path fill="#707070" d="M206.81,106.129c-2.067,0.282-4.711-2.224-4.554-4.755c0.162-2.624,2.387-4.848,4.969-4.779
		c2.4,0.063,4.572,2.396,4.544,4.88C211.74,104.173,209.598,106.183,206.81,106.129z"/>
	<path fill="#707070" d="M83.904,122.753c0.034,2.481-2.117,4.792-4.56,4.899c-2.321,0.101-4.895-2.302-4.88-4.555
		c0.018-2.528,2.176-4.971,4.407-4.99C81.637,118.085,83.869,120.145,83.904,122.753z"/>
	<path fill="#707070" d="M260.299,95.469c-2.71-0.046-4.791-2.198-4.734-4.894c0.055-2.557,2.453-4.861,4.942-4.748
		c2.44,0.111,4.6,2.38,4.593,4.826C265.092,93.401,262.985,95.515,260.299,95.469z"/>
	<path fill="#707070" d="M179.78,197.893c0,2.786-2.047,4.931-4.718,4.941c-2.465,0.009-4.944-2.5-4.876-4.937
		c0.064-2.294,2.484-4.592,4.882-4.635C177.651,193.216,179.78,195.308,179.78,197.893z"/>
	<path fill="#707070" d="M142.805,170.502c-2.397-0.032-4.543-2.37-4.457-4.855c0.091-2.628,2.321-4.557,5.055-4.587
		c2.127-0.023,4.447,2.035,4.44,4.855C147.836,168.539,145.635,170.54,142.805,170.502z"/>
	<path fill="#707070" d="M158.502,187.359c-0.066,2.58-2.192,4.711-4.722,4.733c-2.441,0.021-4.728-2.282-4.799-4.687
		c-0.058-1.976,2.096-5.007,4.921-4.865C156.45,182.668,158.567,184.808,158.502,187.359z"/>
	<path fill="#707070" d="M154.143,64.464c2.528,0.125,4.429,2.299,4.346,4.972c-0.073,2.339-2.401,4.697-4.534,4.593
		c-2.802-0.136-5.141-2.483-5.011-5.028C149.065,66.625,151.68,64.343,154.143,64.464z"/>
	<path fill="#707070" d="M207.09,43.069c2.6,0.031,4.72,2.094,4.725,4.597c0.006,2.622-2.298,4.936-4.824,4.845
		c-2.728-0.097-4.658-2.017-4.679-4.653C202.29,45.126,204.375,43.037,207.09,43.069z"/>
	<path fill="#707070" d="M143.1,202.729c-2.586-0.009-4.716-2.058-4.767-4.586c-0.05-2.465,2.354-4.925,4.818-4.932
		c2.544-0.008,4.792,2.363,4.709,4.965C147.779,200.719,145.668,202.738,143.1,202.729z"/>
	<path fill="#707070" d="M153.58,106.101c-2.739-0.125-4.803-2.358-4.624-5.005c0.164-2.425,2.612-4.624,4.975-4.469
		c2.708,0.177,4.821,2.474,4.531,5.124C158.113,104.935,155.954,106.281,153.58,106.101z"/>
	<path fill="#707070" d="M153.826,214.844c2.574-0.016,4.653,2.071,4.626,4.644c-0.029,2.676-1.945,4.685-4.55,4.77
		c-2.598,0.085-4.976-2.138-4.998-4.672C148.881,216.979,151.08,214.861,153.826,214.844z"/>
	<path fill="#707070" d="M142.79,116.858c-2.39-0.09-4.489-2.431-4.477-4.859c0.01-1.974,2.216-4.805,4.861-4.518
		c3.354,0.364,4.696,2.089,4.685,4.871C147.848,115.046,145.602,116.964,142.79,116.858z"/>
	<path fill="#707070" d="M105.369,144.432c-0.266,2.311-2.105,4.51-4.871,4.632c-2.483,0.109-4.809-2.338-4.825-4.903
		c-0.014-2.155,2.576-4.715,4.81-4.755C102.691,139.367,105.413,142.167,105.369,144.432z"/>
	<path fill="#707070" d="M190.377,155.31c0.024,2.294-2.041,4.535-4.194,4.55c-2.992,0.021-5.248-2.026-5.23-4.745
		c0.017-2.584,2.149-4.84,4.559-4.825C188.434,150.307,190.345,152.279,190.377,155.31z"/>
	<path fill="#707070" d="M143.265,42.913c2.332,0.052,4.698,2.569,4.595,4.891c-0.111,2.523-2.288,4.744-4.67,4.765
		c-2.757,0.025-4.875-2.255-4.775-5.141C138.5,44.953,140.752,42.857,143.265,42.913z"/>
	<path fill="#707070" d="M217.708,42.915c2.361-0.036,4.678,2.294,4.793,4.718c0.145,3.055-2.949,5.075-4.765,4.966
		c-2.243-0.135-4.793-1.828-4.764-4.976C212.994,45.18,215.184,42.954,217.708,42.915z"/>
	<path fill="#707070" d="M132.46,214.878c2.971-0.231,4.841,2.461,4.749,4.776c-0.101,2.549-2.232,4.58-4.805,4.538
		c-2.602-0.042-4.626-2.109-4.606-4.705C127.818,216.838,129.809,214.869,132.46,214.878z"/>
	<path fill="#707070" d="M169.149,80.084c-0.053,2.711-2.225,4.731-4.994,4.646c-2.505-0.077-4.642-2.491-4.579-5.171
		c0.051-2.184,2.476-4.373,4.805-4.337C167.164,75.266,169.203,77.345,169.149,80.084z"/>
	<path fill="#707070" d="M164.252,43.079c2.765-0.035,5.028,2.076,4.995,4.661c-0.032,2.463-2.219,4.72-4.671,4.82
		c-2.587,0.105-4.99-2.187-4.961-4.731C159.644,45.239,161.722,43.11,164.252,43.079z"/>
	<path fill="#707070" d="M126.528,123.219c-0.012,2.291-2.292,4.474-4.647,4.452c-2.604-0.025-4.827-2.254-4.869-4.885
		c-0.039-2.401,2.273-4.729,4.698-4.732C124.411,118.05,126.543,120.336,126.528,123.219z"/>
	<path fill="#707070" d="M147.868,58.327c-0.266,3.095-1.832,4.769-4.747,4.908c-2.482,0.118-4.712-2.105-4.742-4.627
		c-0.032-2.669,2.135-4.883,4.768-4.873C145.757,53.745,147.829,55.761,147.868,58.327z"/>
	<path fill="#707070" d="M132.448,73.988c-2.441,0.053-4.648-2.179-4.666-4.716c-0.018-2.634,1.959-4.733,4.546-4.827
		c2.469-0.09,4.841,2.143,4.857,4.57C137.202,71.644,135.023,73.933,132.448,73.988z"/>
	<path fill="#707070" d="M121.68,193.284c2.7,0.01,4.907,2.204,4.868,4.839c-0.036,2.469-2.322,4.685-4.796,4.65
		c-2.567-0.037-4.706-2.171-4.714-4.703C117.031,195.564,119.252,193.274,121.68,193.284z"/>
	<path fill="#707070" d="M143.319,64.422c2.316,0.068,4.637,2.515,4.56,4.917c-0.1,3.132-2.656,4.712-4.963,4.671
		c-2.337-0.041-4.627-2.476-4.598-4.861C138.35,66.624,140.759,64.346,143.319,64.422z"/>
	<path fill="#707070" d="M153.764,150.29c2.704,0.064,4.743,2.203,4.723,4.954c-0.019,2.609-2.092,4.624-4.732,4.6
		c-2.529-0.023-4.74-2.432-4.832-4.966C148.85,152.895,151.51,149.948,153.764,150.29z"/>
	<path fill="#707070" d="M132.314,161.045c2.349-0.104,4.896,1.885,4.901,4.765c0.004,2.452-2.184,4.664-4.69,4.673
		c-2.673,0.009-4.695-1.936-4.75-4.569C127.723,163.428,129.912,161.079,132.314,161.045z"/>
	<path fill="#707070" d="M106.541,197.867c0.035-2.694,1.996-4.593,4.685-4.536c2.595,0.054,4.672,2.155,4.657,4.71
		c-0.015,2.486-2.242,4.716-4.725,4.731C108.378,202.79,106.503,200.798,106.541,197.867z"/>
	<path fill="#707070" d="M169.102,165.748c-0.141,3.006-2.18,4.823-5.07,4.775c-2.79-0.047-4.556-3.057-4.426-5.224
		c0.133-2.22,2.817-4.425,5.155-4.275C167.045,161.17,169.207,163.523,169.102,165.748z"/>
	<path fill="#707070" d="M111.06,106.109c-2.556-0.042-4.762-2.224-4.734-4.685c0.028-2.467,2.287-4.762,4.706-4.782
		c2.53-0.021,4.912,2.374,4.895,4.921C115.911,104.027,113.637,106.15,111.06,106.109z"/>
	<path fill="#707070" d="M147.891,122.79c0.029,2.6-2.218,4.867-4.834,4.875c-2.441,0.008-4.648-2.207-4.723-4.74
		c-0.075-2.531,2.228-4.837,4.835-4.843C145.588,118.077,147.864,120.347,147.891,122.79z"/>
	<path fill="#707070" d="M132.493,150.341c2.77,0.038,4.653,1.903,4.68,4.636c0.027,2.695-2.208,4.952-4.823,4.868
		c-2.504-0.081-4.62-2.302-4.615-4.845C127.741,152.57,130.05,150.308,132.493,150.341z"/>
	<path fill="#707070" d="M142.958,181.37c-2.238,0.032-4.586-2.327-4.597-4.837c-0.01-2.285,1.787-4.675,4.595-4.756
		c2.637-0.075,4.839,2.19,4.868,4.807C147.852,179.098,145.58,181.332,142.958,181.37z"/>
	<path fill="#707070" d="M175.002,43.043c2.418-0.053,4.874,2.212,4.923,4.538c0.05,2.413-2.356,4.898-4.87,4.982
		c-2.438,0.081-4.584-2.021-4.938-4.908C169.856,45.533,172.565,43.096,175.002,43.043z"/>
	<path fill="#707070" d="M169.085,176.67c-0.051,2.446-2.377,4.796-4.699,4.748c-2.307-0.048-4.786-2.493-4.812-4.747
		c-0.029-2.463,2.403-4.943,4.836-4.932C167.107,171.75,169.144,173.898,169.085,176.67z"/>
	<path fill="#707070" d="M179.721,166.076c0,2.544-1.912,4.425-4.523,4.449c-2.759,0.025-4.95-2.037-5-4.706
		c-0.043-2.314,2.38-4.808,4.699-4.836C177.632,160.95,179.721,163.155,179.721,166.076z"/>
	<path fill="#707070" d="M126.609,69.747c-0.128,2.138-2.715,4.431-4.887,4.331c-2.666-0.123-4.878-2.679-4.648-5.373
		c0.206-2.418,2.662-4.468,5.115-4.271C124.664,64.633,126.763,67.156,126.609,69.747z"/>
	<path fill="#707070" d="M100.481,95.445c-2.457,0.059-4.739-2.042-4.808-4.949c-0.055-2.362,2.557-4.685,4.911-4.606
		c2.328,0.078,4.826,2.61,4.772,4.836C105.3,93.027,102.805,95.442,100.481,95.445z"/>
	<path fill="#707070" d="M238.837,63.25c-2.546-0.065-4.625-2.251-4.564-4.8c0.064-2.691,2.241-4.767,4.966-4.734
		c2.402,0.029,4.729,2.435,4.653,4.822C243.81,61.096,241.002,63.67,238.837,63.25z"/>
	<path fill="#707070" d="M117.031,187.039c-0.006-2.277,2.181-4.425,4.56-4.479c2.513-0.057,5.091,2.303,5.09,4.659
		c-0.002,2.287-2.456,4.795-4.724,4.827C119.182,192.085,117.038,189.907,117.031,187.039z"/>
	<path fill="#707070" d="M121.87,106.112c-2.65,0.024-4.929-2.23-4.885-4.833c0.039-2.352,2.401-4.578,4.889-4.608
		c2.36-0.029,4.75,2.386,4.719,4.765C126.56,103.917,124.364,106.09,121.87,106.112z"/>
	<path fill="#707070" d="M149.156,26.223c0.143-2.955,2.102-4.873,4.811-4.708c2.679,0.163,4.618,2.224,4.511,4.795
		c-0.116,2.781-2.27,4.832-4.924,4.688C150.747,30.844,149.023,28.972,149.156,26.223z"/>
	<path fill="#707070" d="M185.679,214.846c2.738-0.027,4.773,2.004,4.796,4.786c0.021,2.485-2.143,4.636-4.693,4.666
		c-2.541,0.03-4.71-2.05-4.777-4.581C180.932,216.963,182.938,214.872,185.679,214.846z"/>
	<path fill="#707070" d="M153.835,43.061c2.782,0.076,4.702,2.163,4.625,5.025c-0.068,2.528-2.329,4.572-4.911,4.441
		c-2.454-0.125-4.639-2.464-4.594-4.919C148.998,45.155,151.32,42.992,153.835,43.061z"/>
	<path fill="#707070" d="M132.484,202.724c-2.52,0.003-4.752-2.164-4.785-4.646c-0.033-2.518,2.145-4.841,4.589-4.893
		c2.495-0.053,4.952,2.381,4.927,4.881C137.19,200.599,135.034,202.721,132.484,202.724z"/>
	<path fill="#707070" d="M170.301,15.683c-0.079-2.481,2.05-4.77,4.538-4.878c2.643-0.115,4.938,2.016,5.006,4.65
		c0.065,2.507-2.213,4.806-4.819,4.863C172.518,20.373,170.383,18.279,170.301,15.683z"/>
	<path fill="#707070" d="M260.222,31.022c-2.787-0.036-4.471-1.889-4.484-4.931c-0.009-2.218,2.37-4.632,4.53-4.595
		c2.831,0.048,4.848,2.051,4.854,4.82C265.128,29.051,263.037,31.059,260.222,31.022z"/>
	<path fill="#707070" d="M132.334,75.206c2.684,0.031,4.883,2.233,4.847,4.853c-0.035,2.507-2.217,4.674-4.74,4.707
		c-2.575,0.034-4.784-2.304-4.719-4.995C127.778,77.401,130.023,75.179,132.334,75.206z"/>
	<path fill="#707070" d="M117.136,111.916c0.175-2.775,2.324-4.644,5.114-4.447c2.4,0.169,4.333,2.38,4.335,4.708
		c0.002,3.178-3.118,4.959-5.144,4.788C118.953,116.755,116.976,114.458,117.136,111.916z"/>
	<path fill="#707070" d="M169.127,37.013c-0.034,2.667-2.288,4.889-4.862,4.794c-2.458-0.091-4.663-2.358-4.668-4.802
		c-0.005-2.555,2.415-4.914,4.933-4.809C167.056,32.303,169.158,34.506,169.127,37.013z"/>
	<path fill="#707070" d="M100.587,75.3c2.102-0.021,4.786,2.219,4.837,4.036c0.077,2.726-2.408,5.428-4.981,5.417
		c-2.454-0.01-4.725-2.398-4.743-4.987C95.683,77.454,98.012,75.325,100.587,75.3z"/>
	<path fill="#707070" d="M83.889,101.473c-0.021,2.661-2.139,4.627-4.963,4.607c-2.454-0.017-4.559-2.131-4.509-4.529
		c0.055-2.664,2.271-4.791,4.869-4.902C81.162,96.569,84.364,99.297,83.889,101.473z"/>
	<path fill="#707070" d="M132.693,204.102c2.668,0.143,4.669,2.273,4.509,4.8c-0.18,2.846-2.263,4.697-5.079,4.513
		c-2.671-0.174-4.459-2.193-4.374-4.939C127.824,206.028,130.156,203.966,132.693,204.102z"/>
	<path fill="#707070" d="M100.368,106.088c-2.452-0.016-4.762-2.267-4.756-4.636c0.006-2.452,2.544-4.936,4.945-4.841
		c2.56,0.102,4.674,2.351,4.726,5.029C105.328,103.928,102.923,106.104,100.368,106.088z"/>
	<path fill="#707070" d="M106.44,176.557c0.057-2.624,2.262-4.917,4.836-4.854c1.99,0.049,4.746,2.233,4.597,4.842
		c-0.156,2.738-2.31,4.88-4.9,4.793C108.494,181.255,106.386,179.031,106.44,176.557z"/>
	<path fill="#707070" d="M100.523,181.365c-2.459,0.056-4.64-2.143-4.712-4.75c-0.069-2.514,2.129-4.876,4.549-4.887
		c2.521-0.012,4.986,2.402,4.976,4.872C105.327,178.929,102.922,181.31,100.523,181.365z"/>
	<path fill="#707070" d="M121.951,53.861c2.761,0.113,4.742,2.239,4.656,4.999c-0.073,2.337-2.553,4.479-5.07,4.378
		c-2.448-0.098-4.589-2.464-4.473-4.939C117.19,55.646,119.276,53.752,121.951,53.861z"/>
	<path fill="#707070" d="M179.842,58.372c-0.19,3.002-2.022,4.917-5.04,4.872c-2.379-0.035-4.639-2.43-4.661-4.849
		c-0.02-2.144,2.636-4.656,4.896-4.632C177.606,53.791,179.867,55.96,179.842,58.372z"/>
	<path fill="#707070" d="M115.855,90.549c0.054,2.515-2.06,4.802-4.506,4.876c-2.691,0.081-4.864-1.984-4.936-4.691
		c-0.067-2.503,2.043-4.621,4.651-4.67C113.729,86.014,115.8,87.952,115.855,90.549z"/>
	<path fill="#707070" d="M158.506,133.69c-0.061,2.5-2.312,4.728-4.75,4.701c-2.511-0.028-4.799-2.306-4.662-4.722
		c0.164-2.884,1.764-4.781,5.125-4.82C156.487,128.822,158.564,131.297,158.506,133.69z"/>
	<path fill="#707070" d="M137.185,133.46c0.073,2.608-2.142,4.887-4.803,4.941c-2.395,0.048-4.631-2.235-4.675-4.773
		c-0.04-2.308,2.148-4.716,4.361-4.798C134.659,128.733,137.115,130.955,137.185,133.46z"/>
	<path fill="#707070" d="M169.182,26.136c0.063,2.625-2.143,4.894-4.768,4.906c-2.444,0.012-4.741-2.349-4.816-4.95
		c-0.069-2.399,2.284-4.499,5.083-4.536C166.991,21.526,169.124,23.696,169.182,26.136z"/>
	<path fill="#707070" d="M126.525,90.64c0.042,2.508-2.158,4.781-4.619,4.773c-2.596-0.008-4.729-2.032-4.836-4.588
		c-0.109-2.623,2.097-4.896,4.78-4.925C124.311,85.873,126.482,88.074,126.525,90.64z"/>
	<path fill="#707070" d="M115.834,187.207c-0.098,2.741-2.293,4.934-4.819,4.817c-2.491-0.116-4.734-2.427-4.652-4.797
		c0.065-1.874,2.094-4.862,4.783-4.68C113.763,182.723,115.921,184.762,115.834,187.207z"/>
	<path fill="#707070" d="M117.043,133.453c-0.054-2.226,2.302-4.61,4.546-4.6c2.518,0.01,4.951,2.155,5.075,4.473
		c0.127,2.37-2.164,4.909-4.52,5.008C119.324,138.454,117.114,136.338,117.043,133.453z"/>
	<path fill="#707070" d="M94.559,144.011c0.063,2.697-2.07,5.033-4.653,5.094c-2.571,0.061-4.657-1.97-4.739-4.613
		c-0.083-2.683,2.044-4.942,4.697-4.987C92.089,139.467,94.507,141.788,94.559,144.011z"/>
	<path fill="#707070" d="M132.389,32.178c2.604,0.082,4.932,2.486,4.821,4.98c-0.117,2.64-2.392,4.657-5.152,4.567
		c-2.437-0.079-4.481-2.455-4.34-5.045C127.849,34.281,130.105,32.106,132.389,32.178z"/>
	<path fill="#707070" d="M175.078,32.311c2.625-0.059,4.701,1.963,4.719,4.595c0.017,2.597-2.208,4.943-4.752,5.011
		c-2.17,0.058-4.675-2.434-4.796-4.771C170.12,34.675,172.422,32.371,175.078,32.311z"/>
	<path fill="#707070" d="M105.32,133.096c0.027,2.827-2.179,5.303-4.835,5.252c-2.558-0.049-4.527-1.682-4.73-4.966
		c-0.144-2.328,2.3-4.549,4.862-4.562C102.577,128.81,105.302,131.288,105.32,133.096z"/>
	<path fill="#707070" d="M94.563,90.737c-0.067,2.642-2.346,4.776-5.014,4.697c-2.435-0.072-4.505-2.405-4.402-4.959
		c0.099-2.449,2.47-4.68,4.838-4.552C92.6,86.064,94.628,88.196,94.563,90.737z"/>
	<path fill="#707070" d="M153.721,107.503c2.612-0.032,4.701,1.961,4.762,4.543c0.066,2.754-2.001,4.86-4.736,4.826
		c-2.5-0.031-4.634-2.176-4.83-4.574C148.737,110.083,151.195,107.197,153.721,107.503z"/>
	<path fill="#707070" d="M143.257,213.537c-2.527,0.077-4.911-2.245-4.939-4.811c-0.026-2.441,2.195-4.624,4.742-4.662
		c2.538-0.038,4.678,2.05,4.775,4.66C147.928,211.231,145.809,213.459,143.257,213.537z"/>
	<path fill="#707070" d="M100.355,127.667c-2.458-0.044-4.737-2.558-4.632-5.109c0.097-2.354,2.473-4.511,4.941-4.485
		c2.32,0.025,4.814,2.555,4.677,4.743C105.178,125.405,102.808,127.711,100.355,127.667z"/>
	<path fill="#707070" d="M111.053,53.795c2.696-0.021,4.868,2.168,4.81,4.85c-0.049,2.28-2.273,4.496-4.6,4.583
		c-2.535,0.095-4.722-1.977-4.779-4.528C106.418,55.785,108.252,53.817,111.053,53.795z"/>
	<path fill="#707070" d="M117.044,79.947c-0.008-2.539,2.143-4.692,4.685-4.69c2.554,0.002,4.816,2.104,4.924,4.577
		c0.099,2.266-2.37,4.846-4.685,4.896C119.252,84.788,117.053,82.653,117.044,79.947z"/>
	<path fill="#707070" d="M132.271,85.881c2.769,0.018,4.949,2.095,4.942,4.709c-0.007,2.618-2.175,4.792-4.832,4.845
		c-2.342,0.047-4.706-2.327-4.696-4.718C127.694,88.208,129.915,85.866,132.271,85.881z"/>
	<path fill="#707070" d="M234.29,15.559c0.007-2.816,1.767-4.594,4.557-4.605c2.554-0.01,5.209,2.57,5.096,4.95
		c-0.108,2.273-2.487,4.432-5.041,4.325C236.27,20.119,234.2,18.219,234.29,15.559z"/>
	<path fill="#707070" d="M83.784,133.392c0.099,3.259-2.316,4.931-4.358,5.018c-2.591,0.111-4.94-2.298-4.946-4.844
		c-0.005-2.505,2.174-4.623,4.782-4.648C81.745,128.894,83.8,130.926,83.784,133.392z"/>
	<path fill="#707070" d="M126.527,144.133c0.02,2.548-2.099,4.902-4.466,4.962c-2.619,0.066-4.965-2.156-4.987-4.724
		c-0.023-2.725,2.074-4.761,4.869-4.728C124.406,139.673,126.508,141.732,126.527,144.133z"/>
	<path fill="#707070" d="M68.517,106.098c-2.523,0.07-4.626-2.006-4.666-4.606c-0.04-2.573,2.033-4.75,4.548-4.776
		c2.739-0.028,4.703,1.938,4.802,4.806C73.288,104.084,71.307,106.02,68.517,106.098z"/>
	<path fill="#707070" d="M164.201,204.183c2.781-0.011,4.977,1.972,5.058,4.567c0.073,2.344-2.224,4.731-4.622,4.805
		c-2.712,0.084-4.902-1.986-4.931-4.662C159.676,206.161,161.554,204.193,164.201,204.183z"/>
	<path fill="#707070" d="M105.199,155.184c0.037,2.329-2.126,4.567-4.479,4.634c-2.558,0.074-5.052-2.233-5.086-4.706
		c-0.032-2.327,2.32-4.685,4.746-4.759C103.056,150.273,105.156,152.376,105.199,155.184z"/>
	<path fill="#707070" d="M149.072,80.042c0.152-3.009,2.201-4.939,5.121-4.823c2.418,0.096,4.354,2.254,4.289,4.78
		c-0.069,2.69-2.385,4.864-4.997,4.689C150.976,84.52,148.953,82.391,149.072,80.042z"/>
	<path fill="#707070" d="M89.618,159.754c-2.587-0.023-4.401-2.023-4.387-4.836c0.012-2.457,2.113-4.604,4.465-4.563
		c2.842,0.05,4.839,2.026,4.832,4.781C94.522,157.94,92.566,159.78,89.618,159.754z"/>
	<path fill="#707070" d="M83.929,69.299c-0.017,2.604-2.304,4.741-4.991,4.665c-2.143-0.061-4.433-2.315-4.468-4.399
		c-0.043-2.53,2.096-5.047,4.319-5.082C81.674,64.437,83.947,66.568,83.929,69.299z"/>
	<path fill="#707070" d="M243.921,37.002c0.014,2.434-2.375,4.751-4.945,4.797c-2.274,0.04-4.665-2.023-4.714-4.069
		c-0.072-2.971,2.12-5.427,4.825-5.408C241.35,32.339,243.908,34.816,243.921,37.002z"/>
	<path fill="#707070" d="M30.583,90.561c-0.001,2.705-2.203,4.904-4.827,4.82c-2.436-0.077-4.66-2.445-4.592-4.891
		c0.068-2.47,2.349-4.571,4.915-4.527C28.318,86.002,30.583,88.314,30.583,90.561z"/>
	<path fill="#707070" d="M228.691,31.063c-2.516-0.046-5.341-2.701-5.301-4.981c0.042-2.381,2.678-4.638,5.245-4.489
		c2.379,0.138,4.391,2.464,4.384,5.069C233.014,29.021,230.964,31.105,228.691,31.063z"/>
	<path fill="#707070" d="M94.524,133.479c0.016,2.652-2.026,4.866-4.455,4.831c-2.904-0.042-4.81-1.905-4.847-4.736
		c-0.033-2.547,2.044-4.683,4.572-4.702C92.343,128.852,94.509,130.962,94.524,133.479z"/>
	<path fill="#707070" d="M143.215,159.899c-2.489,0.034-4.914-2.392-4.916-4.919c-0.002-2.458,2.285-4.644,4.832-4.617
		c2.469,0.026,4.652,2.061,4.752,4.429C147.99,157.31,145.654,159.866,143.215,159.899z"/>
	<path fill="#707070" d="M137.227,112.328c-0.024,2.352-2.441,4.594-4.904,4.551c-2.525-0.044-4.534-2.039-4.552-4.518
		c-0.021-2.868,1.905-4.88,4.689-4.898C135.218,107.444,137.256,109.524,137.227,112.328z"/>
	<path fill="#707070" d="M68.943,75.34c2.437,0.14,4.452,2.364,4.267,4.71c-0.215,2.729-2.481,4.842-5.013,4.673
		c-2.268-0.151-4.588-2.556-4.519-4.685C63.764,77.358,66.202,75.183,68.943,75.34z"/>
	<path fill="#707070" d="M89.879,170.449c-2.874-0.032-4.738-1.997-4.65-4.9c0.077-2.508,2.189-4.583,4.573-4.492
		c2.672,0.102,4.657,2.111,4.673,4.731C94.491,168.421,92.463,170.478,89.879,170.449z"/>
	<path fill="#707070" d="M57.769,73.986c-2.408-0.039-4.627-2.373-4.63-4.867c-0.002-2.315,2.526-4.744,4.85-4.661
		c2.423,0.087,4.703,2.462,4.66,4.856C62.607,71.694,60.172,74.026,57.769,73.986z"/>
	<path fill="#707070" d="M111.029,43.083c2.763,0.025,4.804,2.089,4.789,4.841c-0.014,2.435-2.359,4.747-4.734,4.665
		c-2.312-0.079-4.747-2.566-4.72-4.82C106.395,45.149,108.475,43.06,111.029,43.083z"/>
	<path fill="#707070" d="M100.509,53.784c2.92,0.048,4.5,2.346,4.77,4.743c0.257,2.278-2.301,4.664-4.773,4.687
		c-2.562,0.023-4.732-2.149-4.712-4.717C95.814,55.96,97.987,53.788,100.509,53.784z"/>
	<path fill="#707070" d="M83.936,90.662c-0.028,2.51-2.287,4.796-4.68,4.736c-2.615-0.065-4.829-2.195-4.79-4.607
		c0.045-2.736,2.206-4.937,4.785-4.872C81.78,85.982,83.964,88.192,83.936,90.662z"/>
	<path fill="#707070" d="M105.264,112.157c0.02,2.464-2.22,4.732-4.683,4.742c-2.604,0.01-4.926-2.292-4.871-4.83
		c0.054-2.482,2.232-4.553,4.831-4.593C102.954,107.439,105.244,109.708,105.264,112.157z"/>
	<path fill="#707070" d="M94.533,79.997c-0.049,2.438-2.314,4.719-4.695,4.726c-2.563,0.008-4.776-2.355-4.652-4.967
		c0.124-2.593,2.255-4.609,4.771-4.513C92.534,75.341,94.584,77.47,94.533,79.997z"/>
	<path fill="#707070" d="M106.514,122.501c0.118-2.457,2.543-4.642,4.923-4.436c2.3,0.199,4.508,2.551,4.474,4.768
		c-0.037,2.437-2.387,4.846-4.699,4.817C108.34,127.614,106.373,125.459,106.514,122.501z"/>
	<path fill="#707070" d="M94.479,58.367c0.02,2.603-2.018,4.804-4.467,4.826c-2.755,0.024-4.867-2.062-4.83-4.77
		c0.036-2.602,2.105-4.569,4.784-4.547C92.478,53.896,94.46,55.869,94.479,58.367z"/>
	<path fill="#707070" d="M249.701,20.13c-2.18,0.112-4.549-1.988-4.62-4.095c-0.093-2.731,1.76-5.086,4.115-5.229
		c2.715-0.164,5.075,1.822,5.208,4.383C254.559,18.206,252.883,19.967,249.701,20.13z"/>
	<path fill="#707070" d="M223.633,15.331c0.03-2.417,2.143-4.509,4.551-4.505c2.397,0.004,4.987,2.304,5.03,4.467
		c0.053,2.649-2.281,4.928-4.998,4.881C225.293,20.122,223.595,18.328,223.633,15.331z"/>
	<path fill="#707070" d="M115.893,155.316c-0.053,2.277-2.342,4.491-4.647,4.496c-2.562,0.005-4.941-2.375-4.871-4.872
		c0.072-2.556,2.497-4.779,5.065-4.643C113.794,150.423,115.95,152.853,115.893,155.316z"/>
	<path fill="#707070" d="M57.787,84.588c-2.512-0.023-4.844-2.335-4.74-4.7c0.107-2.436,2.502-4.668,4.936-4.599
		c2.495,0.07,4.76,2.383,4.694,4.794C62.607,82.642,60.469,84.613,57.787,84.588z"/>
	<path fill="#707070" d="M94.477,123.167c-0.04,2.399-2.138,4.489-4.54,4.523c-2.619,0.037-4.796-2.226-4.698-4.883
		c0.094-2.547,2.062-4.646,4.375-4.665C92.393,118.119,94.524,120.322,94.477,123.167z"/>
	<path fill="#707070" d="M233.057,37.45c-0.024,2.15-2.469,4.455-4.719,4.451c-2.58-0.005-4.969-2.552-4.871-5.195
		c0.075-2.033,2.669-4.271,4.935-4.259C230.961,32.461,233.088,34.747,233.057,37.45z"/>
	<path fill="#707070" d="M25.751,106.027c-2.759-0.128-4.589-2.064-4.486-4.746c0.101-2.62,2.221-4.636,4.783-4.548
		c2.545,0.087,4.556,2.269,4.485,4.864C30.46,104.238,28.397,106.149,25.751,106.027z"/>
	<path fill="#707070" d="M111.169,128.849c2.377,0.003,4.64,2.136,4.677,4.409c0.047,2.871-1.917,5.017-4.57,4.995
		c-2.853-0.024-4.882-1.989-4.888-4.732C106.383,131.21,108.803,128.846,111.169,128.849z"/>
	<path fill="#707070" d="M68.774,64.532c2.519,0.086,4.618,2.501,4.488,5.164c-0.103,2.118-2.69,4.43-4.847,4.333
		c-2.413-0.109-4.846-2.77-4.686-5.125C63.891,66.536,66.299,64.448,68.774,64.532z"/>
	<path fill="#707070" d="M254.117,25.781c0.016,3.065-1.897,5.272-4.56,5.263c-2.495-0.008-4.591-2.337-4.575-5.084
		c0.012-2.109,2.28-4.368,4.359-4.343C252.631,21.657,254.102,22.939,254.117,25.781z"/>
	<path fill="#707070" d="M121.936,41.689c-2.748,0.047-4.895-2.056-4.872-4.773c0.022-2.567,2.198-4.716,4.743-4.682
		c2.559,0.034,4.741,2.182,4.765,4.689C126.597,39.506,124.516,41.645,121.936,41.689z"/>
	<path fill="#707070" d="M105.37,48.124c-0.041,2.039-2.608,4.327-4.865,4.336c-2.73,0.011-4.675-2.062-4.62-4.924
		c0.05-2.594,2.146-4.523,4.818-4.434C103.299,43.187,105.424,45.474,105.37,48.124z"/>
	<path fill="#707070" d="M79.124,75.282c2.618,0.047,4.859,2.342,4.788,4.901c-0.067,2.376-2.475,4.762-4.862,4.523
		c-2.639-0.265-4.516-2.094-4.632-4.811C74.315,77.466,76.661,75.237,79.124,75.282z"/>
	<path fill="#707070" d="M111.418,161.079c2.281,0.05,4.41,2.339,4.386,4.717c-0.028,2.753-2.151,4.794-4.883,4.694
		c-2.588-0.095-4.488-2.151-4.462-4.826C106.485,162.98,108.608,161.017,111.418,161.079z"/>
	<path fill="#707070" d="M73.233,122.919c0.024,2.282-2.258,4.655-4.475,4.653c-2.645-0.002-4.93-2.196-4.963-4.767
		c-0.033-2.573,2.238-4.665,5.026-4.631C71.025,118.201,73.208,120.549,73.233,122.919z"/>
	<path fill="#707070" d="M47.211,64.489c2.496,0.051,4.835,2.363,4.747,4.694c-0.095,2.521-2.598,4.934-4.993,4.813
		c-2.299-0.116-4.469-2.467-4.38-4.746C42.686,66.67,44.851,64.441,47.211,64.489z"/>
	<path fill="#707070" d="M111.157,149.201c-2.458-0.06-4.755-2.476-4.779-5.026c-0.022-2.374,2.164-4.52,4.583-4.497
		c2.864,0.026,4.923,2.023,4.866,4.719C115.774,146.899,113.481,149.258,111.157,149.201z"/>
	<path fill="#707070" d="M217.865,21.762c2.16-0.01,4.38,1.941,4.43,3.894c0.074,2.834-2.124,5.378-4.672,5.408
		c-2.466,0.029-4.818-2.458-4.772-5.018C212.895,23.613,215.193,21.646,217.865,21.762z"/>
	<path fill="#707070" d="M106.565,37.021c-0.006-2.686,2.158-4.867,4.751-4.788c2.399,0.073,4.43,2.167,4.48,4.62
		c0.053,2.639-2.16,4.906-4.771,4.887C108.372,41.721,106.571,39.815,106.565,37.021z"/>
	<path fill="#707070" d="M31.911,68.977c0.14-2.692,2.418-4.656,5.148-4.44c2.219,0.176,4.301,2.597,4.252,4.945
		c-0.049,2.341-2.553,4.56-4.985,4.418C33.846,73.756,31.782,71.454,31.911,68.977z"/>
	<path fill="#707070" d="M89.808,106.065c-2.602,0.033-4.641-2.017-4.653-4.68c-0.011-2.374,2.151-4.656,4.458-4.705
		c2.745-0.058,4.863,1.986,4.931,4.758C94.604,103.892,92.412,106.033,89.808,106.065z"/>
	<path fill="#707070" d="M83.874,112.501c-0.121,2.678-2.288,4.47-5.196,4.299c-2.378-0.14-4.423-2.604-4.234-5.103
		c0.172-2.279,2.482-4.255,4.88-4.173C82.031,107.618,83.998,109.769,83.874,112.501z"/>
	<path fill="#707070" d="M0.063,79.767c0.166-2.862,2.007-4.584,4.739-4.433c2.499,0.138,4.693,2.483,4.534,4.846
		c-0.173,2.56-2.434,4.628-4.9,4.482C1.801,84.506-0.089,82.39,0.063,79.767z"/>
	<path fill="#707070" d="M68.372,95.449c-2.42-0.056-4.619-2.403-4.576-4.884c0.043-2.48,2.345-4.685,4.825-4.622
		c2.359,0.059,4.715,2.317,4.581,4.588C73.029,93.46,71.261,95.199,68.372,95.449z"/>
	<path fill="#707070" d="M15.221,118.151c2.471,0.041,4.673,2.284,4.668,4.794c-0.005,2.799-2.169,4.415-4.498,4.598
		c-2.618,0.206-4.813-2.187-4.723-4.89C10.749,120.181,12.842,118.112,15.221,118.151z"/>
	<path fill="#707070" d="M41.304,101.489c0.032,2.326-2.138,4.525-4.517,4.578c-2.703,0.06-4.891-2.062-4.911-4.763
		c-0.017-2.33,2.408-4.708,4.773-4.68C39.001,96.653,41.27,99.024,41.304,101.489z"/>
	<path fill="#707070" d="M30.526,69.658c-0.041,2.307-2.35,4.421-4.701,4.305c-2.514-0.124-4.653-2.355-4.608-4.806
		c0.045-2.439,2.344-4.637,4.807-4.596C28.631,64.606,30.577,66.809,30.526,69.658z"/>
	<path fill="#707070" d="M42.597,79.558c0.028-2.453,2.101-4.195,4.719-4.25c2.39-0.051,4.553,2.523,4.751,4.781
		c0.187,2.13-2.621,4.685-4.897,4.611C44.591,84.616,42.565,82.338,42.597,79.558z"/>
	<path fill="#707070" d="M36.633,95.434c-2.326,0.055-4.711-2.23-4.877-4.673c-0.154-2.259,2.441-4.741,4.995-4.777
		c2.313-0.033,4.521,2.222,4.509,4.605C41.248,93.114,39.088,95.376,36.633,95.434z"/>
	<path fill="#707070" d="M90.078,116.833c-3.098,0.228-4.964-2.476-4.831-4.998c0.133-2.513,2.197-4.488,4.647-4.378
		c2.672,0.12,4.619,2.15,4.584,4.781C94.445,114.678,92.338,116.879,90.078,116.833z"/>
	<path fill="#707070" d="M62.576,101.614c0.056,2.328-2.294,4.509-4.873,4.522c-2.01,0.01-4.52-2.339-4.618-4.322
		c-0.121-2.437,2.272-5.097,4.647-5.168C60.076,96.577,62.515,99.079,62.576,101.614z"/>
	<path fill="#707070" d="M4.686,106.062c-2.614,0.021-4.634-1.987-4.686-4.656c-0.046-2.358,2.156-4.732,4.383-4.726
		c2.476,0.007,4.838,2.212,4.894,4.568C9.338,103.744,7.145,106.043,4.686,106.062z"/>
	<path fill="#707070" d="M115.785,79.975c0.124,3.106-2.674,4.816-4.852,4.679c-2.637-0.166-4.556-2.201-4.478-4.833
		c0.077-2.58,2.174-4.567,4.789-4.536C113.869,75.316,115.88,77.393,115.785,79.975z"/>
	<path fill="#707070" d="M10.706,90.528c0.1-2.543,2.406-4.78,4.775-4.632c2.176,0.135,4.629,2.701,4.409,4.816
		c-0.32,3.072-2.466,4.806-4.732,4.691C12.467,95.267,10.599,93.236,10.706,90.528z"/>
	<path fill="#707070" d="M30.547,79.809c-0.315,3.065-2.006,4.789-4.579,4.804c-2.602,0.014-4.753-2.211-4.762-4.683
		c-0.009-2.579,2.351-4.694,5.046-4.67C28.312,75.278,30.748,77.864,30.547,79.809z"/>
	<path fill="#707070" d="M25.771,116.787c-2.431-0.021-4.568-2.228-4.597-4.747c-0.028-2.47,2.385-4.607,5.113-4.528
		c2.413,0.07,4.328,2.207,4.253,4.745C30.463,114.826,28.376,116.809,25.771,116.787z"/>
	<path fill="#707070" d="M57.945,95.482c-2.299,0.059-4.744-2.349-4.802-4.729c-0.055-2.243,2.163-4.59,4.447-4.705
		c2.57-0.129,5.128,2.168,5.121,4.599C62.705,92.895,60.212,95.424,57.945,95.482z"/>
	<path fill="#707070" d="M19.876,101.418c-0.005,2.691-1.968,4.662-4.618,4.635c-2.478-0.025-4.673-2.076-4.672-4.366
		c0.001-2.684,2.179-5.039,4.659-5.039C17.622,96.647,19.88,98.973,19.876,101.418z"/>
	<path fill="#707070" d="M36.61,107.564c2.54-0.01,4.688,2.18,4.62,4.709c-0.069,2.563-2.185,4.574-4.8,4.563
		c-2.587-0.011-4.515-2.038-4.523-4.753C31.9,109.577,33.985,107.574,36.61,107.564z"/>
	<path fill="#707070" d="M47.215,95.455c-2.58-0.078-4.763-2.455-4.641-5.053c0.12-2.546,2.325-4.547,4.908-4.455
		c2.341,0.083,4.323,2.269,4.3,4.741C51.757,93.294,49.617,95.527,47.215,95.455z"/>
	<path fill="#707070" d="M10.719,69.246c0.079-2.848,2.115-4.85,4.816-4.735c2.267,0.096,4.418,2.474,4.336,4.793
		c-0.09,2.559-2.082,4.569-4.503,4.545C12.608,73.822,10.646,71.879,10.719,69.246z"/>
	<path fill="#707070" d="M115.832,69.137c-0.179,2.854-1.886,4.628-4.878,4.743c-2.501,0.096-4.517-2.026-4.5-4.429
		c0.02-2.981,2.124-4.839,4.675-5.002C113.506,64.297,115.855,66.722,115.832,69.137z"/>
	<path fill="#707070" d="M15.162,116.8c-2.631-0.059-4.688-2.322-4.556-5.014c0.118-2.404,2.241-4.297,4.734-4.22
		c2.703,0.083,4.681,2.108,4.578,4.684C19.814,114.861,17.727,116.858,15.162,116.8z"/>
	<path fill="#707070" d="M73.312,112.175c-0.006,2.438-2.265,4.618-4.8,4.632c-2.506,0.013-4.785-2.249-4.713-4.679
		c0.072-2.415,2.223-4.651,4.48-4.658C70.997,107.46,73.318,109.63,73.312,112.175z"/>
	<path fill="#707070" d="M9.259,133.907c-0.041,2.431-2.186,4.41-4.701,4.336c-2.54-0.074-4.555-2.059-4.552-4.482
		c0.004-2.697,1.998-4.821,4.508-4.802C7.146,128.978,9.304,131.229,9.259,133.907z"/>
	<path fill="#707070" d="M10.513,79.687c-0.053-2.196,2.253-4.323,4.721-4.356c2.524-0.034,4.5,1.921,4.636,4.429
		c0.118,2.194-1.693,4.624-4.558,4.86C12.886,84.82,10.578,82.388,10.513,79.687z"/>
	<path fill="#707070" d="M41.269,79.879c-0.026,2.585-2.35,4.856-4.923,4.813c-2.17-0.036-4.523-2.45-4.521-4.638
		c0.002-2.57,2.325-4.792,4.95-4.738C39.166,75.366,41.293,77.526,41.269,79.879z"/>
	<path fill="#707070" d="M115.809,112.32c-0.048,2.46-2.418,4.716-4.849,4.616c-2.526-0.103-4.565-2.325-4.513-4.917
		c0.05-2.469,2.123-4.555,4.537-4.565C113.665,107.442,115.861,109.657,115.809,112.32z"/>
	<path fill="#707070" d="M46.954,106.028c-2.498,0.001-4.429-1.987-4.398-4.528c0.032-2.608,2.217-4.785,4.87-4.852
		c1.982-0.05,4.396,2.359,4.441,4.433C51.93,103.936,49.853,106.027,46.954,106.028z"/>
	<path fill="#707070" d="M85.286,69.317c0.031-2.749,2.173-4.938,4.756-4.861c2.425,0.072,4.52,2.418,4.423,4.954
		c-0.088,2.287-2.401,4.646-4.561,4.651C87.488,74.067,85.258,71.775,85.286,69.317z"/>
</g>
</svg>
